<svg id="Layer_1" data-name="Layer 1" xmlns="http://www.w3.org/2000/svg" viewBox="0 0 1080 1080"><defs><style>.cls-1{fill:#75c044;}.cls-2{fill:#7a461d;}.cls-3{fill:#0f5185;}.cls-4{fill:#003964;}.cls-5{fill:#58b947;}.cls-12,.cls-15,.cls-6{fill:none;}.cls-13,.cls-7{fill:#fac95c;}.cls-8{fill:#f89725;}.cls-9{fill:#8b5e3c;}.cls-10{fill:#754c29;}.cls-11{fill:#fbae3b;}.cls-12{stroke:#231f20;stroke-width:4.06px;}.cls-12,.cls-15{stroke-miterlimit:10;}.cls-13{font-size:133.86px;}.cls-13,.cls-14{font-family:SegoeUI-Semibold, Segoe UI;font-weight:600;}.cls-14{font-size:170.37px;fill:#fff;}.cls-15{stroke:#f7941d;stroke-width:2.03px;}</style></defs><path class="cls-1" d="M553.69,509.28l31.22,130.11L522.27,793.76s-37.15,11.72-71.33-18.3L552.43,509.28h1.26"/><path class="cls-2" d="M1050.13,892a112.39,112.39,0,0,1-103.52,112c-2.92.23-5.88.35-8.86.35-2,0-3.88,0-5.78-.14-1.06-.06-2.13-.13-3.19-.21a112.39,112.39,0,0,1-21.44-3.81h32.43V830.34c0-3.55-.1-7-.3-10.39a149.18,149.18,0,0,0-7.71-40.19l.21,0c1.9-.11,3.83-.15,5.78-.15A112.37,112.37,0,0,1,1050.13,892Z"/><path class="cls-2" d="M583.1,887.81a112.41,112.41,0,0,1-103.52,112c-2.92.22-5.89.34-8.87.34-1.94,0-3.87,0-5.78-.14-1.05-.06-2.13-.12-3.18-.2A113.18,113.18,0,0,1,440.31,996h32.43V826.19c0-3.55-.1-7-.3-10.38a149.18,149.18,0,0,0-7.71-40.2l.2,0c1.91-.1,3.84-.14,5.78-.14A112.37,112.37,0,0,1,583.1,887.81Z"/><path class="cls-2" d="M739,887.81a112.4,112.4,0,0,1-103.52,112c-2.92.22-5.88.34-8.86.34-1.95,0-3.87,0-5.78-.14-1.05-.06-2.13-.12-3.18-.2A112.9,112.9,0,0,1,596.24,996h32.43V826.19c0-3.55-.1-7-.3-10.38a150,150,0,0,0-7.71-40.2l.2,0c1.91-.1,3.83-.14,5.78-.14A112.37,112.37,0,0,1,739,887.81Z"/><path class="cls-3" d="M822.75,618l-13.86,40.38H727.46L684,606.63c47.64,22.8,72.51,7.26,72.51,7.26q4.44-3,8.29-5.17v0c20-11.32,29-7.24,29-7.24C820.68,608.7,822.75,618,822.75,618Z"/><path class="cls-4" d="M866.21,605.64l-33.1,52.77H808.89L822.75,618a54.79,54.79,0,0,0,20-1.24A64.16,64.16,0,0,0,866.21,605.64Z"/><path class="cls-5" d="M752.33,1000.18H671.55l-2.3-9.51a112.58,112.58,0,0,0,63.14-73.36Z"/><path class="cls-6" d="M671.55,1000.18H644.61v-4.42a110.36,110.36,0,0,0,23.51-9.86l1.13,4.77Z"/><path class="cls-6" d="M618.57,775.58l-.93.06,0-.08C617.94,775.56,618.26,775.56,618.57,775.58Z"/><path class="cls-7" d="M537,970.35a112.5,112.5,0,0,1-91.78,28.76L440,987.73l-15.86-34.22a73.16,73.16,0,0,0,87.53-17.64A112.08,112.08,0,0,0,537,970.35Z"/><path class="cls-7" d="M362.57,997.16a112.64,112.64,0,0,1-79.51-70.5h6.58V887.82H276.17a111.62,111.62,0,0,1,8.36-42.59l0-.13c1.23-3,2.61-6,4.11-8.84l21.52,46.85,29,63.18Z"/><path class="cls-7" d="M424.63,781.38a112.63,112.63,0,0,0-49.49,33.69,108.32,108.32,0,0,0-9.28,12.59L361.35,818l-15.74-34a113,113,0,0,1,79-2.55Z"/><path class="cls-7" d="M1038.55,892A112.37,112.37,0,0,1,935,1004l-3,.21c-1.91.1-3.84.14-5.78.14q-4.43,0-8.75-.35a110.07,110.07,0,0,1-21.66-3.81h44V830.34c0-3.55-.1-7-.3-10.39a149.18,149.18,0,0,0-7.71-40.19v0H932A112.37,112.37,0,0,1,1038.55,892Z"/><path class="cls-7" d="M712.7,835.41v0a112.18,112.18,0,0,0-94.09-59.81h0l-.93.06,0-.08v0c-1.44-.06-2.88-.08-4.34-.08a112.36,112.36,0,0,0,0,224.72c1.78,0,3.54,0,5.29-.12h0a113.68,113.68,0,0,0,26-4.3,110.36,110.36,0,0,0,23.51-9.86,112.24,112.24,0,0,0,57.52-96.68c0-.47,0-.94,0-1.4A111.84,111.84,0,0,0,712.7,835.41ZM659.23,948.93a73.19,73.19,0,1,1-46-130.17,74.27,74.27,0,0,1,15.09,1.54v0a71.58,71.58,0,0,1,16.24,5.48,73.2,73.2,0,0,1,14.62,123.13Z"/><path class="cls-6" d="M644.61,777.36v2.52a112.6,112.6,0,0,0-26-4.3c1.76-.08,3.55-.12,5.33-.12A112.55,112.55,0,0,1,644.61,777.36Z"/><path class="cls-6" d="M669.25,990.67a109.63,109.63,0,0,1-24.64,7.6,111.69,111.69,0,0,1-20.67,1.91c-1.78,0-3.57,0-5.33-.12a113.68,113.68,0,0,0,26-4.3,110.36,110.36,0,0,0,23.51-9.86Z"/><path class="cls-8" d="M686.47,892a73.17,73.17,0,1,1-73.19-73.2,74.27,74.27,0,0,1,15.09,1.54v0a71.58,71.58,0,0,1,16.24,5.48A73.13,73.13,0,0,1,686.47,892Z"/><path class="cls-8" d="M500.91,887.82a111.79,111.79,0,0,0,10.77,48,73.22,73.22,0,0,1-87.53,17.64l-1.77-3.83L385.45,870a73.2,73.2,0,0,1,126.23-30.18A111.76,111.76,0,0,0,500.91,887.82Z"/><path class="cls-8" d="M339.21,946.29A73.07,73.07,0,0,1,310,887.82c0-1.58,0-3.15.16-4.71Z"/><path class="cls-7" d="M537,805.29a112.08,112.08,0,0,0-25.36,34.48A73.22,73.22,0,0,0,385.45,870l-19.59-42.29a108.32,108.32,0,0,1,9.28-12.59,112.63,112.63,0,0,1,49.49-33.69h0A112.64,112.64,0,0,1,537,805.29Z"/><path class="cls-8" d="M375.14,815.07a108.32,108.32,0,0,0-9.28,12.59L361.35,818A73.08,73.08,0,0,1,375.14,815.07Z"/><path class="cls-3" d="M854.85,830.68v169.5H752.33l-19.94-82.87a112.5,112.5,0,0,0-25.25-105l0,0-23.06-95.85v0a181,181,0,0,1,42.37-26.92h71.8C860.37,756.8,854.85,830.68,854.85,830.68Z"/><path class="cls-8" d="M999.38,892a73.21,73.21,0,0,1-59.61,71.94V830.34c0-3.55-.1-7-.3-10.39A73.25,73.25,0,0,1,999.38,892Z"/><polygon class="cls-9" points="808.89 658.41 798.23 689.48 727.46 689.48 727.46 658.41 808.89 658.41"/><polygon class="cls-10" points="833.11 658.41 833.11 689.48 798.23 689.48 808.89 658.41 833.11 658.41"/><polyline class="cls-7" points="264.73 887.82 160.56 887.82 148.51 887.82 50.13 887.82 36.66 887.82 36.66 844.84 148.51 844.84 201.81 844.84"/><rect class="cls-7" x="74.99" y="961.02" width="239.5" height="42.98"/><rect class="cls-7" x="50.13" y="887.82" width="226.04" height="38.84"/><rect class="cls-7" x="44.95" y="926.65" width="231.21" height="34.36"/><polyline class="cls-11" points="264.73 887.82 160.56 887.82 148.51 887.82 148.51 844.84 268.75 844.84"/><rect class="cls-11" x="160.56" y="887.82" width="115.61" height="38.84"/><rect class="cls-11" x="148.52" y="926.65" width="127.65" height="34.36"/><rect class="cls-11" x="185.81" y="961.02" width="128.68" height="42.98"/><path class="cls-5" d="M707.12,812.27a112.12,112.12,0,0,0-83.18-36.81c-1.78,0-3.57,0-5.33.12h0c-.31,0-.63,0-1,0v0l-32.7-136.16-31.23-130.1h80.56L684.06,716.4v0Z"/><path class="cls-1" d="M902.5,542.42l-40.41-9.31-19.37,83.68a54.79,54.79,0,0,1-20,1.24s-2.07-9.33-29-16.57c0,0-8.94-4.08-29,7.24l20.71-92.16-40.4-12.44L866.25,344.61Z"/><path class="cls-1" d="M288.68,836.24v0c-1.5,2.88-2.88,5.82-4.11,8.84l0,.13a111.62,111.62,0,0,0-8.36,42.59v-43H201.82l47.17-95Z"/><line class="cls-6" x1="288.68" y1="836.26" x2="284.57" y2="845.1"/><line class="cls-12" x1="27.35" y1="1001.97" x2="1050.13" y2="1001.97"/><polygon class="cls-5" points="445.77 1000.18 363.95 1000.18 362.57 997.16 339.2 946.29 310.2 883.11 288.68 836.26 288.68 836.24 248.99 749.82 250.15 747.49 328.72 747.49 345.61 783.93 361.35 817.95 365.86 827.66 385.45 869.95 422.38 949.68 424.15 953.51 440.01 987.73 445.26 999.11 445.77 1000.18"/><rect class="cls-2" x="276.17" y="887.82" width="13.47" height="38.84"/><rect class="cls-2" x="257.27" y="926.65" width="18.9" height="34.36"/><text class="cls-13" transform="translate(899.39 941.26)">₹</text><rect class="cls-2" x="300.77" y="961.02" width="13.72" height="39.17"/><rect class="cls-2" x="262.01" y="844.84" width="13.47" height="42.98"/><path class="cls-4" d="M939.77,830.34v169.84H854.85V830.68s5.52-73.88-56.62-141.2h34.88s73.91,17.95,98.65,90.26v0A149.18,149.18,0,0,1,939.47,820C939.67,823.34,939.77,826.79,939.77,830.34Z"/><text class="cls-14" transform="translate(729.18 912.6)">₹</text><text class="cls-13" transform="translate(573.39 938.65)">₹</text><text class="cls-13" transform="translate(416.8 938.65)">₹</text><line class="cls-15" x1="276.17" y1="999.34" x2="276.17" y2="961.87"/><line class="cls-15" x1="250.15" y1="999.34" x2="250.15" y2="961.87"/><line class="cls-15" x1="221.49" y1="999.34" x2="221.49" y2="961.87"/><line class="cls-15" x1="194.74" y1="999.34" x2="194.74" y2="961.87"/><line class="cls-15" x1="160.56" y1="999.34" x2="160.56" y2="961.87"/><line class="cls-15" x1="135.36" y1="999.34" x2="135.36" y2="961.87"/><line class="cls-15" x1="104.98" y1="999.34" x2="104.98" y2="961.87"/><line class="cls-15" x1="74.99" y1="999.34" x2="74.99" y2="961.87"/><line class="cls-15" x1="246.13" y1="961.02" x2="246.13" y2="926.65"/><line class="cls-15" x1="220.11" y1="961.02" x2="220.11" y2="926.65"/><line class="cls-15" x1="191.46" y1="961.02" x2="191.46" y2="926.65"/><line class="cls-15" x1="164.7" y1="961.02" x2="164.7" y2="926.65"/><line class="cls-15" x1="130.53" y1="961.02" x2="130.53" y2="926.65"/><line class="cls-15" x1="105.33" y1="961.02" x2="105.33" y2="926.65"/><line class="cls-15" x1="74.95" y1="961.02" x2="74.95" y2="926.65"/><line class="cls-15" x1="44.95" y1="961.02" x2="44.95" y2="926.65"/><line class="cls-15" x1="260.37" y1="926.66" x2="260.37" y2="887.82"/><line class="cls-15" x1="233.18" y1="926.66" x2="233.18" y2="887.82"/><line class="cls-15" x1="203.23" y1="926.66" x2="203.23" y2="887.82"/><line class="cls-15" x1="175.26" y1="926.66" x2="175.26" y2="887.82"/><line class="cls-15" x1="139.54" y1="926.66" x2="139.54" y2="887.82"/><line class="cls-15" x1="113.2" y1="926.66" x2="113.2" y2="887.82"/><line class="cls-15" x1="81.45" y1="926.66" x2="81.45" y2="887.82"/><line class="cls-15" x1="50.1" y1="926.66" x2="50.1" y2="887.82"/><line class="cls-15" x1="238.28" y1="885.75" x2="238.28" y2="844.84"/><line class="cls-15" x1="212.2" y1="885.75" x2="212.2" y2="844.84"/><line class="cls-15" x1="183.48" y1="885.75" x2="183.48" y2="844.84"/><line class="cls-15" x1="156.67" y1="885.75" x2="156.67" y2="844.84"/><line class="cls-15" x1="122.42" y1="885.75" x2="122.42" y2="844.84"/><line class="cls-15" x1="97.16" y1="885.75" x2="97.16" y2="844.84"/><line class="cls-15" x1="66.72" y1="885.75" x2="66.72" y2="844.84"/><line class="cls-15" x1="36.66" y1="885.75" x2="36.66" y2="844.84"/></svg>