<svg id="Layer_1" data-name="Layer 1" xmlns="http://www.w3.org/2000/svg" viewBox="0 0 1080 1080"><defs><style>.cls-1{fill:#0b3a7a;}.cls-2{fill:#104c98;}.cls-3,.cls-5{fill:#fac95c;}.cls-4{fill:#f89725;}.cls-5{font-size:72.99px;font-family:SegoeUI-Semibold, Segoe UI;font-weight:600;}.cls-6{fill:#fbae3b;}.cls-7{fill:#7a461d;}.cls-8{fill:#126e38;}.cls-9{fill:#408a41;}.cls-10{fill:#1f431e;}.cls-11{fill:#231f20;}.cls-12{fill:#f7a08f;}.cls-13{fill:#e39383;}.cls-14{fill:#262247;}.cls-15{fill:#006838;}.cls-16{fill:#262262;}.cls-17{fill:#00a651;}.cls-18{fill:#009447;}.cls-19{fill:#db9383;}.cls-20{fill:#d2af2b;}.cls-21{fill:#ed1e32;}.cls-22{fill:#f8a795;}.cls-23{fill:#ce3927;}.cls-24{fill:#ba3526;}.cls-25{fill:#e0bb2f;}.cls-26{fill:none;stroke:#231f20;stroke-miterlimit:10;stroke-width:4.42px;}.cls-27{fill:#a7a9ac;}.cls-28{fill:#f7a3a1;}.cls-29{fill:#4e3d30;}.cls-30{fill:#de9291;}.cls-31{fill:#7e4d1f;}.cls-32{fill:#92653b;}.cls-33{fill:#239345;}.cls-34{fill:#1f763b;}.cls-35{fill:#121d12;}.cls-36{fill:#242465;}.cls-37{fill:#52240e;}.cls-38{fill:#2b3085;}.cls-39{fill:#7ecfd5;}.cls-40{fill:#f8a393;}.cls-41{fill:#9cd8dd;}</style></defs><polygon class="cls-1" points="841.36 866.29 878.5 982.13 839.37 996.63 802.22 880.78 841.36 866.29"/><polyline class="cls-2" points="842.57 864.04 675.37 1001.63 650.21 966.3 774.56 863.98"/><polyline class="cls-2" points="837.47 997.25 980.8 819.92 1012.05 849.11 890.68 999.25"/><polygon class="cls-2" points="1037.91 783.18 962.16 811.25 1022.65 867.73 1037.91 783.18"/><path class="cls-3" d="M834.55,625.6h0A61.22,61.22,0,0,0,783.25,593h0l-.5,0,0,0h0c-.78,0-1.57,0-2.36,0a61.27,61.27,0,0,0,0,122.54c1,0,1.93,0,2.88-.07h0A61.81,61.81,0,0,0,797.42,713a60.23,60.23,0,0,0,12.82-5.38,61.2,61.2,0,0,0,31.37-52.72c0-.25,0-.51,0-.76A61,61,0,0,0,834.55,625.6ZM805.4,687.5a39.13,39.13,0,0,1-8,5,39.91,39.91,0,1,1-17.08-76,40.59,40.59,0,0,1,8.23.84h0a38.77,38.77,0,0,1,8.85,3,39.92,39.92,0,0,1,8,67.14Z"/><path class="cls-4" d="M820.25,656.44A39.81,39.81,0,0,1,805.4,687.5a39.13,39.13,0,0,1-8,5,39.91,39.91,0,1,1-17.08-76,40.59,40.59,0,0,1,8.23.84h0a38.77,38.77,0,0,1,8.85,3A39.88,39.88,0,0,1,820.25,656.44Z"/><text class="cls-5" transform="translate(758.59 681.9)">₹</text><path class="cls-3" d="M963.31,557.84v0A61.11,61.11,0,0,0,912,525.21h0l-.51,0v0h0c-.79,0-1.57-.05-2.37-.05a61.28,61.28,0,0,0,0,122.55c1,0,1.93,0,2.89-.07h0a61.46,61.46,0,0,0,14.18-2.35A59.82,59.82,0,0,0,939,639.9a61.2,61.2,0,0,0,31.37-52.72c0-.26,0-.51,0-.77A60.82,60.82,0,0,0,963.31,557.84Zm-29.15,61.9a39.33,39.33,0,0,1-8,5,39.9,39.9,0,1,1-8.86-75.15h0a39.49,39.49,0,0,1,8.86,3,39.93,39.93,0,0,1,8,67.15Z"/><path class="cls-4" d="M949,588.67a39.83,39.83,0,0,1-14.85,31.07,39.33,39.33,0,0,1-8,5,39.9,39.9,0,1,1-8.86-75.15h0a39.49,39.49,0,0,1,8.86,3A39.9,39.9,0,0,1,949,588.67Z"/><text class="cls-5" transform="translate(887.35 614.13)">₹</text><path class="cls-3" d="M920.7,493v0a61.14,61.14,0,0,0-51.3-32.61h0l-.51,0v0h0c-.78,0-1.57-.05-2.36-.05a61.28,61.28,0,0,0,0,122.55c1,0,1.93,0,2.88-.07h0a61.37,61.37,0,0,0,14.17-2.35,59.69,59.69,0,0,0,12.82-5.37,61.2,61.2,0,0,0,31.37-52.72c0-.26,0-.51,0-.77A60.94,60.94,0,0,0,920.7,493Zm-29.15,61.9a39.91,39.91,0,1,1-25.06-71,39.89,39.89,0,0,1,8.23.84h0a39.24,39.24,0,0,1,8.85,3,39.93,39.93,0,0,1,8,67.15Z"/><path class="cls-4" d="M906.4,523.83a39.83,39.83,0,0,1-14.85,31.07,39.91,39.91,0,1,1-25.06-71,39.89,39.89,0,0,1,8.23.84h0a39.24,39.24,0,0,1,8.85,3A39.89,39.89,0,0,1,906.4,523.83Z"/><text class="cls-5" transform="translate(844.74 549.29)">₹</text><path class="cls-3" d="M978.6,320.69h0a61.21,61.21,0,0,0-51.31-32.62h0l-.51,0v0h0c-.79,0-1.57-.05-2.37-.05a61.28,61.28,0,0,0,0,122.55c1,0,1.94,0,2.89-.07h0a62,62,0,0,0,14.18-2.34A61.37,61.37,0,0,0,985.65,350c0-.26,0-.51,0-.76A60.94,60.94,0,0,0,978.6,320.69Zm-29.16,61.9a39.83,39.83,0,0,1-25.06,8.85,39.92,39.92,0,1,1,8.23-79h0a39.32,39.32,0,0,1,8.86,3,39.92,39.92,0,0,1,8,67.15Z"/><path class="cls-4" d="M964.3,351.52a39.84,39.84,0,0,1-14.86,31.07,39.83,39.83,0,0,1-25.06,8.85,39.92,39.92,0,1,1,8.23-79h0a39.32,39.32,0,0,1,8.86,3A39.92,39.92,0,0,1,964.3,351.52Z"/><text class="cls-5" transform="translate(902.63 376.99)">₹</text><path class="cls-3" d="M180.89,695.81h0a61.22,61.22,0,0,0-51.3-32.62h0l-.51,0v0h0c-.78,0-1.57,0-2.36,0a61.27,61.27,0,0,0,0,122.54c1,0,1.93,0,2.88-.07h0a61.81,61.81,0,0,0,14.17-2.34,60.23,60.23,0,0,0,12.82-5.38A61.2,61.2,0,0,0,188,725.15c0-.25,0-.51,0-.76A61,61,0,0,0,180.89,695.81Zm-29.15,61.9a39.13,39.13,0,0,1-8,5,39.91,39.91,0,1,1-17.08-76,40.59,40.59,0,0,1,8.23.84h0a38.77,38.77,0,0,1,8.85,3,39.92,39.92,0,0,1,8,67.14Z"/><path class="cls-4" d="M166.59,726.64a39.82,39.82,0,0,1-14.85,31.07,39.13,39.13,0,0,1-8,5,39.91,39.91,0,1,1-17.08-76,40.59,40.59,0,0,1,8.23.84h0a38.77,38.77,0,0,1,8.85,3A39.88,39.88,0,0,1,166.59,726.64Z"/><text class="cls-5" transform="translate(104.93 752.11)">₹</text><path class="cls-3" d="M260.21,631.06h0a61.13,61.13,0,0,0-51.31-32.61h0l-.51,0v0h0c-.79,0-1.57,0-2.37,0a61.27,61.27,0,0,0,0,122.54c1,0,1.94,0,2.89-.06h0a62,62,0,0,0,14.18-2.35,61.31,61.31,0,0,0,44.18-58.09c0-.26,0-.51,0-.77A61,61,0,0,0,260.21,631.06ZM231.05,693A39.91,39.91,0,1,1,206,622a40.59,40.59,0,0,1,8.23.84v0a38.83,38.83,0,0,1,8.86,3,39.92,39.92,0,0,1,8,67.15Z"/><path class="cls-4" d="M245.91,661.9A39.9,39.9,0,1,1,206,622a40.59,40.59,0,0,1,8.23.84v0a38.83,38.83,0,0,1,8.86,3A39.9,39.9,0,0,1,245.91,661.9Z"/><text class="cls-5" transform="translate(184.24 687.36)">₹</text><path class="cls-3" d="M191.11,473.14h0a61.13,61.13,0,0,0-51.31-32.61h0l-.51,0v0h0c-.79,0-1.57-.05-2.37-.05a61.27,61.27,0,0,0,0,122.54c1,0,1.94,0,2.89-.06h0A61.9,61.9,0,0,0,154,560.58a61.31,61.31,0,0,0,44.18-58.09c0-.26,0-.51,0-.77A61,61,0,0,0,191.11,473.14ZM162,535.05a39.91,39.91,0,1,1-25.06-71,40.52,40.52,0,0,1,8.23.84v0a38.83,38.83,0,0,1,8.86,3,39.92,39.92,0,0,1,8,67.15Z"/><path class="cls-4" d="M176.81,504a39.9,39.9,0,1,1-39.92-39.92,40.52,40.52,0,0,1,8.23.84v0a38.83,38.83,0,0,1,8.86,3A39.9,39.9,0,0,1,176.81,504Z"/><text class="cls-5" transform="translate(115.14 529.44)">₹</text><polyline class="cls-3" points="202.59 902.93 124.75 902.93 115.75 902.93 42.23 902.93 32.16 902.93 32.16 870.82 115.75 870.82 155.58 870.82"/><rect class="cls-3" x="60.81" y="957.63" width="178.97" height="32.12"/><rect class="cls-3" x="42.23" y="902.93" width="168.91" height="29.02"/><rect class="cls-3" x="38.36" y="931.95" width="172.77" height="25.68"/><polyline class="cls-6" points="202.59 902.93 124.75 902.93 115.75 902.93 115.75 870.82 205.59 870.82"/><rect class="cls-6" x="124.75" y="902.93" width="86.39" height="29.02"/><rect class="cls-6" x="115.75" y="931.95" width="95.38" height="25.68"/><rect class="cls-6" x="143.61" y="957.63" width="96.16" height="32.12"/><rect class="cls-7" x="211.14" y="902.93" width="10.06" height="29.02"/><rect class="cls-7" x="197.01" y="931.95" width="14.12" height="25.68"/><rect class="cls-7" x="229.52" y="957.63" width="10.25" height="29.27"/><rect class="cls-7" x="200.56" y="870.82" width="10.06" height="32.11"/><path class="cls-8" d="M490.19,359.39,284.62,369.55c-100.52,7.91-90.36,97.59-90.36,97.59V668.87H301.57l.8,0c16.79-1,26.67-19.41,18.39-34.05A50.89,50.89,0,0,1,314,612a40.33,40.33,0,0,1,7.4-23.75c19.53-27.68,62.91-20.73,73.94,11.29a36.38,36.38,0,0,1,1.11,3.78c.62,15.29-1.42,22.74-3.42,26.35A21,21,0,0,0,390.69,645c3.57,14.09,14.79,14.83,14.79,14.83L506,656.45l-4.52-88.11c0-.37,0-.74,0-1.1.26-19.26,19.76-32,37.67-24.92,10.15,4,17.36,3.61,20.9,2.95,2-.36,4-.72,6-.95,31.8-3.7,29.45-31.58,28.32-38.7-.22-1.34-.37-2.69-.49-4-3.06-34.87-24.67-34.44-24.67-34.44-11.54-.73-18,2.41-21.7,6-8.81,8.61-21.94,11.44-32.87,5.74a34.94,34.94,0,0,1-13.2-11.72V359.39Z"/><path class="cls-9" d="M539.92,1000.85l205.57-10.16c100.52-7.91,90.36-97.59,90.36-97.59V691.37H728.54l-.8,0c-16.79,1-26.68,19.41-18.39,34.05a50.86,50.86,0,0,1,6.77,22.74A40.27,40.27,0,0,1,708.71,772c-19.52,27.68-62.91,20.73-73.93-11.29a38.51,38.51,0,0,1-1.12-3.78c-.61-15.3,1.43-22.74,3.43-26.35a21,21,0,0,0,2.33-15.29c-3.57-14.09-14.79-14.84-14.79-14.84L524.1,703.79l4.52,88.1c0,.38,0,.74,0,1.11-.26,19.26-19.76,32-37.67,24.91-10.15-4-17.36-3.6-20.9-2.95-2,.37-4,.72-6,1-31.79,3.69-29.44,31.57-28.31,38.7.21,1.34.37,2.69.49,4,3.05,34.87,24.67,34.44,24.67,34.44,11.54.73,18-2.41,21.7-6,8.81-8.61,21.94-11.43,32.87-5.73a35,35,0,0,1,13.2,11.72v107.75Z"/><path class="cls-10" d="M828.42,655.6,818.25,450c-7.9-100.52-97.59-90.36-97.59-90.36H518.93V467c0,.27,0,.54.05.8a22.83,22.83,0,0,0,34,18.39,50.92,50.92,0,0,1,22.75-6.77,40.27,40.27,0,0,1,23.75,7.41c27.67,19.52,20.73,62.91-11.3,73.93a38,38,0,0,1-3.77,1.12c-15.3.61-22.74-1.43-26.35-3.43a21,21,0,0,0-15.3-2.33C528.72,559.67,528,570.89,528,570.89l3.39,100.53,88.1-4.52h1.11c19.25.26,32,19.76,24.91,37.67-4,10.15-3.6,17.36-3,20.9.37,2,.72,4,1,6,3.69,31.79,31.57,29.44,38.7,28.31,1.34-.21,2.69-.37,4-.49,34.87-3.05,34.43-24.67,34.43-24.67.74-11.54-2.4-18-6-21.7-8.61-8.81-11.43-21.94-5.74-32.87a35.13,35.13,0,0,1,11.72-13.2H828.42Z"/><path class="cls-11" d="M359.11,326.12a113.32,113.32,0,0,0,22.15-1.51A18.52,18.52,0,0,0,395,299a52.65,52.65,0,0,0-8.68-13.49,40,40,0,0,1-9.17-18.09c-3.28-15.58-7.39-18.69-7.39-18.69-19.45-2.26-22.27,3.34-22.27,3.34-9,18.69-6.78,45.23-6.78,45.23C353.09,327.82,359.11,326.12,359.11,326.12Z"/><path class="cls-12" d="M361,284.33v-6.21A46,46,0,0,0,367.2,273c5.65,0,0-6.77,0-6.77-2.82-15.82-6.21-14.12-6.21-14.12-9.6.56-10.73,11.29-10.73,11.29,0,13.56,3.95,13.56,3.95,13.56l-3.95,16.94,3.95,16.94L365,291.67Z"/><polygon class="cls-13" points="333.98 305.15 328.8 345.32 347.44 329.51 333.98 305.15"/><polygon class="cls-12" points="305.65 446.98 305.65 422.69 294.29 415.98 294.29 452.06 305.65 446.98"/><path class="cls-12" d="M372.1,306.35l5.83,33.33,10.85,29.57c10.16,3.95,10.05-.17,10.05-.17a19.63,19.63,0,0,0,9,2,2.35,2.35,0,0,0,.54-4.61c-9.94-2.8-15.35-2-15.35-2l-7.22-27.1-5.08-36.71Z"/><path class="cls-12" d="M268.94,434l7.9-27.7s0-28.24-7.9,0L261,434.55Z"/><path class="cls-14" d="M350.26,360l-2.54-22.59c-62.79,11.86-71,22.59-71,22.59l-14,53.65,17.77,4.52,15.85-47.44Z"/><path class="cls-15" d="M313,452.06l-26.55,13c-3.38-6.21,7.85-13,7.85-13l11.36-9Z"/><path class="cls-15" d="M270.63,428.08l6.21,6.47L250.3,447c-4.52-5.65,10.73-12.43,10.73-12.43"/><path class="cls-16" d="M368.33,339.68c8.48,19.76,0,33.88,0,33.88-46.31,17.51-55.91,14.12-55.91,14.12L307.91,430l-13,3.38-2.26-62.68C322,353.23,368.33,339.68,368.33,339.68Z"/><path class="cls-17" d="M372.1,315.76l13.74-4.07c0-8.15-6.87-27.36-6.87-27.36H361l-5.08,15.72-4.52-15.72-9.6,1.16-9.41,24.45,4.33,2.33L339,344.69l32.21,5.76Z"/><path class="cls-18" d="M336.71,312.27l-4.33-2.33,9.41-24.45C336.53,306,336.71,312.27,336.71,312.27Z"/><path class="cls-19" d="M354.21,277c2.65,2.67,6.78,1.13,6.78,1.13v6.21A19.36,19.36,0,0,1,354.21,277Z"/><path class="cls-11" d="M654.66,251.14c-6.77-1.5-9.79-12.42-9.79-12.42a30.29,30.29,0,0,1,4.9-17.7c4.89-6.78,14.31-5.27,14.31-5.27a12.78,12.78,0,0,1,5,3.77c5.52-.76,9.28,6.77,9.28,6.77-1.88,20.33-9.28,19.2-9.28,19.2Z"/><path class="cls-20" d="M706.62,362.21c-37.27-4.52-63.73,0-63.73,0l-11.57-26c12.8-6,77.18-.73,77.18-.73Z"/><path class="cls-21" d="M658.81,432.24c-6.78,3.76-15.92,3-15.92,3-4.79-2.63-2.53-8.28-2.53-8.28,5.27-8.66,9-8.29,9-8.29h6.95C661.44,427,658.81,432.24,658.81,432.24Z"/><path class="cls-21" d="M718.3,435.31H684.78c0-10.22,2.83-14.38,2.83-14.38h10.82l19.87,9.8C721.3,433.37,718.3,435.31,718.3,435.31Z"/><path class="cls-22" d="M667.09,267a65.77,65.77,0,0,1-7.61,17.28l-6.7-22.92V251.14a12.37,12.37,0,0,1-3.13-8.28c-4.78-4.14,0-6,0-6,5,1.51,6.9-3.46,6.9-3.46,5.64-9,13.36-6.32,13.36-6.32,4,6,2.68,16.91,2.68,16.91-4.37,12.08-8.89,11.5-8.89,11.5l-.24,9.37Z"/><polygon class="cls-23" points="634.33 263.57 652.78 261.31 661.62 275.24 664.08 261.31 678.38 263.48 687.42 282.16 681.02 329.45 634.33 325.31 634.33 263.57"/><path class="cls-24" d="M697.21,300.84c-4.9-24.25-18.83-35.39-18.83-35.39,6,15.42,4.15,35.39,4.15,35.39Z"/><path class="cls-22" d="M624.17,305.41c1.5,22.28,5.64,27.45,5.64,27.45l30.12,2.39,1.69-11.14H638.47c1.13-10.74-3-26.66-3-26.66Z"/><path class="cls-23" d="M640.36,304.23l-16.19.75V275.24c.75-13.56,10.16-11.67,10.16-11.67,7.16,7.53,6,12.8,6,12.8Z"/><polygon class="cls-11" points="705.42 335.25 723.19 297.45 673.11 297.45 655.04 333.38 705.42 335.25"/><path class="cls-25" d="M656.55,424.33H644.86c-16.55-55-20.69-79.44-20.69-79.44,1.88-9.79,10.16-9,10.16-9,9.42.76,10.53,11.68,10.53,11.68C656.55,402.5,656.55,424.33,656.55,424.33Z"/><path class="cls-25" d="M696.83,424.33h-9.41c4.14-73.42,9.41-82.08,9.41-82.08,5.27-9,13.93-6.41,13.93-6.41,7.91,3,7.53,11.31,7.53,11.31C708.5,402.5,696.83,424.33,696.83,424.33Z"/><path class="cls-19" d="M663.7,255.46c-4.49,2.67-10.92-1.48-10.92-1.48v6.21C661.06,257,663.7,255.46,663.7,255.46Z"/><line class="cls-26" x1="636.55" y1="332.54" x2="705.43" y2="333.04"/><ellipse class="cls-27" cx="689.16" cy="317.42" rx="4.71" ry="1.67" transform="translate(106.13 802.99) rotate(-64.52)"/><path class="cls-28" d="M889.64,753.83c-6.78,4.47-17.51-5.41-17.51-5.41l-3.67-16.1H847.53c-1.1,7.34,2.86,11.33,2.86,11.33-1.7,7,0,8.44,0,8.44h2c.85,3.67,3.39,2.9,3.39,2.9,0,5.57,6.5,5.85,6.5,5.85,6.21.56,6.24-1.69,6.24-1.69,2.23,4.23-1.44,9.31-1.44,9.31l17.79,9Z"/><path class="cls-29" d="M928,977.42a60,60,0,0,1,3.67,14.12A5.24,5.24,0,0,1,928,993.8H904.89c-2-4.23,4.8-4.52,4.8-4.52,9.88-2.26,10.73-11.86,10.73-11.86Z"/><path class="cls-29" d="M958.68,975.45a83.58,83.58,0,0,1,3.67,16.79,5.12,5.12,0,0,1-3.67,2.69H935.52c-2-5,4.8-5.37,4.8-5.37,9.89-2.69,10.73-14.11,10.73-14.11Z"/><path class="cls-30" d="M835.85,802.4l9.17-3.25,14.12-12,7.91,9.6c-8.11,10.36-12,13.56-12,13.56l-19.15,6.81"/><polygon class="cls-31" points="960.29 977.42 949.5 977.42 930.3 884.8 955.72 862.29 960.29 977.42"/><path class="cls-32" d="M946.11,814.83c15.82,24.23,14.12,28.75,14.12,28.75-12.42,54.78-24.85,80.19-24.85,80.19l-5.08,56.48H917.88c-4.52-119.73,2.82-160.39,2.82-160.39Z"/><path class="cls-33" d="M958.26,821.27,920.7,840.75,869,780.89c-5.09-2.83-2-12.43-2-12.43,9.88,7,18.35-3.37,18.35-3.37l18.11-11.26Z"/><polygon class="cls-34" points="852.37 787.1 867.05 768.46 874.96 777.78 871 803.48 852.37 787.1"/><path class="cls-28" d="M895.85,788.23l-12.42,20.33L842.2,832.85C835.45,851.48,828,848.61,828,848.61c-6.15-1.65,0-12.38,0-12.38L822.43,834c6.78-7.35,13.3-6.78,13.3-6.78C866.48,799,871,799.15,871,799.15l7.91-18.26Z"/><path class="cls-34" d="M895.85,793.31,875,780.89c8.47-24.85,17.5-31.06,17.5-31.06,14.12,2.26,14.69,9,14.69,9Z"/><path class="cls-11" d="M870.44,753.83c5.36-3.72,4.52-19.53,4.52-19.53-7.63-13.28-20.34-12.15-20.34-12.15-12.42,6.78-11,10.73-11,10.73.28,5.09,11.86,1.7,11.86,1.7,3.67,5.36,8.19,6.49,8.19,6.49,2.26-4,4.8-.56,4.8-.56,1.13,3.67-1.41,7.34-1.41,7.34C867.9,754.06,870.44,753.83,870.44,753.83Z"/><path class="cls-19" d="M868.49,759.15c2.83-2.78,4.83-9.73,4.83-9.73.26,13.73-4.83,16.27-4.83,16.27A10.9,10.9,0,0,0,868.49,759.15Z"/><path class="cls-35" d="M201.52,698.71l10.17,205.57c7.9,100.53,97.59,90.36,97.59,90.36H511V887.34c0-.27,0-.54,0-.81-1-16.78-19.42-26.67-34.05-18.38a51,51,0,0,1-22.75,6.76,40.29,40.29,0,0,1-23.75-7.4c-27.67-19.52-20.73-62.91,11.3-73.93a38,38,0,0,1,3.77-1.12c15.3-.61,22.74,1.43,26.36,3.43a21,21,0,0,0,15.29,2.32c14.08-3.57,14.83-14.79,14.83-14.79L498.58,682.9l-88.1,4.52h-1.11c-19.25-.26-32-19.77-24.91-37.68,4-10.14,3.6-17.36,3-20.9-.37-2-.72-4-1-6-3.69-31.8-31.57-29.45-38.7-28.31-1.34.21-2.69.36-4,.48-34.87,3.06-34.43,24.68-34.43,24.68-.74,11.53,2.4,18,6,21.7,8.61,8.81,11.43,21.94,5.74,32.86a35.12,35.12,0,0,1-11.72,13.21H201.52Z"/><path class="cls-36" d="M197.81,968H182.08c-3.39-40.66,5.08-63.82,5.08-63.82-7.34-24.85,0-51.39,0-51.39L206,811.51c6.57,42.93-3.59,90.93-3.59,90.93C203.54,942.54,197.81,968,197.81,968Z"/><path class="cls-37" d="M190.26,701.39a30.43,30.43,0,0,0-25.12,12.42c-10.17,23.72-19.77,27.67-19.77,27.67C125,755,136.9,782.71,136.9,782.71,162.31,807.56,182.08,798,182.08,798c23.72-44.05,23.72-62.69,23.72-62.69C208.06,714.94,190.26,701.39,190.26,701.39Z"/><path class="cls-38" d="M169.73,821.68c-10.81,35.58-7.42,73.42-7.42,73.42-17.51,30.49-17.79,66.07-17.79,66.07l7.63,2.83C182.64,903.57,206,825.07,206,825.07s-1.41-23.72-18.84-13.56Z"/><path class="cls-39" d="M206,825.07c-21.1,3.95-36.27-3.39-36.27-3.39a47.49,47.49,0,0,0,5.53-33.89l-.18-8.69L162.31,785c-7.9-20.89-3.39-34.38-3.39-34.38,10.17-10.23,45.27-5.55,45.27-5.55C215.91,772.55,206,825.07,206,825.07Z"/><path class="cls-40" d="M162.31,775.93c10.18,23.84,16.38,18.83,16.38,18.83C208.06,782.15,206,775.93,206,775.93c12.79-2.25,15.05-8.47,15.05-8.47C220.48,759,206,765.2,206,765.2c-4.92,0-8.19,9-8.19,9-15.17,5.65-19.12,8.47-19.12,8.47l-6.21-6.21Z"/><path class="cls-40" d="M152.15,964c-.57,17.51-4.52,21.46-4.52,21.46H136.9c3.39-15.25,7.62-24.29,7.62-24.29Z"/><path class="cls-40" d="M202.41,985.46l-15.25,1.13V968h7.63C193.37,978.12,202.41,985.46,202.41,985.46Z"/><path class="cls-40" d="M194.79,747.13a18.1,18.1,0,0,1-3.11,13.57L181,747.13c4-3.39,3.39-15.81,3.39-15.81-4-5.08-3.39-7.34-3.39-7.34-5.08-1.7,0-5.09,0-5.09,2.29-9.6,14.14-12.94,14.14-12.94,8.24,12.7,2.75,27.37,2.75,27.37-6.7,2.52-6.13,6.47-6.13,6.47C191.68,750,194.79,747.13,194.79,747.13Z"/><path class="cls-11" d="M147.63,985.46c0,8.47-6.21,9.8-6.21,9.8-6.78-7-4.52-13.75-4.52-13.75C141.42,988.85,147.63,985.46,147.63,985.46Z"/><path class="cls-11" d="M187.16,986.59v5.65h30.5c-5.65-6.78-15.25-6.78-15.25-6.78-6.87.51-15.25-4-15.25-4Z"/><path class="cls-19" d="M196.17,734.8c-4.9,2.68-11.92-1.48-11.92-1.48v6.22C193.28,736.38,196.17,734.8,196.17,734.8Z"/><path class="cls-41" d="M162,785l13.09-5.87c-.67-11.37-10.56-32.09-10.56-32.09-7.2,2.37-6,3.58-6,3.58C155.3,763.22,162,785,162,785Z"/><path class="cls-40" d="M190.05,789.9c18.38-9.35,16.85-14,16.85-14,12.79-2.25,15-8.47,15-8.47-.57-8.47-15-2.26-15-2.26-4.91,0-8.19,9-8.19,9-3.44,1.28-6.3,2.42-8.67,3.41"/><line class="cls-26" x1="62.67" y1="993.8" x2="1028.4" y2="993.8"/></svg>