<svg id="Layer_1" data-name="Layer 1" xmlns="http://www.w3.org/2000/svg" viewBox="0 0 1080 1080"><defs><style>.cls-1,.cls-4{fill:#88c767;}.cls-10,.cls-2{fill:none;}.cls-2,.cls-3{stroke:#2bb673;}.cls-10,.cls-2,.cls-3{stroke-miterlimit:10;}.cls-2{stroke-width:3.13px;}.cls-3{fill:#2bb673;}.cls-10,.cls-3{stroke-width:1.56px;}.cls-4{font-size:57.81px;}.cls-4,.cls-7{font-family:SegoeUI-Semibold, Segoe UI;font-weight:600;}.cls-5,.cls-7{fill:#fac95c;}.cls-6{fill:#f89725;}.cls-7{font-size:54.66px;}.cls-8{fill:#fbae3b;}.cls-9{fill:#7a461d;}.cls-10{stroke:#f7941d;}.cls-11{fill:#000026;}.cls-12{fill:#fff;}</style></defs><rect class="cls-1" x="725.36" y="544.59" width="205.06" height="82.98"/><rect class="cls-2" x="731.75" y="550.14" width="193.89" height="71.01"/><path class="cls-3" d="M731.91,621.15l-.16-21.94h.16a22,22,0,0,1,21.94,21.94Z"/><path class="cls-3" d="M925.47,621.15l.17-21.94h-.17a22,22,0,0,0-21.94,21.94Z"/><path class="cls-3" d="M731.83,550.31l21.94-.17v.17a22,22,0,0,1-21.94,21.94Z"/><path class="cls-3" d="M925.55,550.31l-21.94-.17v.17a22.05,22.05,0,0,0,21.94,21.94Z"/><circle class="cls-3" cx="830.67" cy="586.46" r="34.69"/><text class="cls-4" transform="translate(812.64 606.7)">₹</text><rect class="cls-1" x="856.3" y="683.36" width="205.06" height="82.98"/><rect class="cls-2" x="862.68" y="688.91" width="193.89" height="71.01"/><path class="cls-3" d="M862.85,759.92,862.68,738h.17a22,22,0,0,1,21.94,21.94Z"/><path class="cls-3" d="M1056.41,759.92l.16-21.94h-.16a22,22,0,0,0-21.94,21.94Z"/><path class="cls-3" d="M862.77,689.07l21.94-.16v.16A22.05,22.05,0,0,1,862.77,711Z"/><path class="cls-3" d="M1056.49,689.07l-21.94-.16v.16A22,22,0,0,0,1056.49,711Z"/><circle class="cls-3" cx="961.61" cy="725.23" r="34.69"/><text class="cls-4" transform="translate(943.58 745.46)">₹</text><rect class="cls-1" x="795.98" y="582.27" width="205.06" height="82.98"/><rect class="cls-2" x="802.36" y="587.82" width="193.89" height="71.01"/><path class="cls-3" d="M802.53,658.83l-.17-21.94h.17a22,22,0,0,1,21.94,21.94Z"/><path class="cls-3" d="M996.09,658.83l.16-21.94h-.16a22,22,0,0,0-22,21.94Z"/><path class="cls-3" d="M802.44,588l21.94-.16a.86.86,0,0,1,0,.16,22,22,0,0,1-21.95,21.94Z"/><path class="cls-3" d="M996.17,588l-21.94-.16V588a22,22,0,0,0,21.94,21.94Z"/><circle class="cls-3" cx="901.28" cy="624.14" r="34.69"/><text class="cls-4" transform="translate(883.26 644.37)">₹</text><rect class="cls-1" x="827.89" y="736.4" width="205.06" height="82.98"/><rect class="cls-2" x="834.28" y="741.96" width="193.89" height="71.01"/><path class="cls-3" d="M834.44,813,834.28,791h.16A22,22,0,0,1,856.38,813Z"/><path class="cls-3" d="M1028,813l.17-21.94H1028A22,22,0,0,0,1006.06,813Z"/><path class="cls-3" d="M834.36,742.12,856.3,742v.16a22,22,0,0,1-21.94,21.94Z"/><path class="cls-3" d="M1028.08,742.12l-21.94-.16v.16a22,22,0,0,0,21.94,21.94Z"/><circle class="cls-3" cx="933.2" cy="778.28" r="34.69"/><text class="cls-4" transform="translate(915.17 798.51)">₹</text><path class="cls-5" d="M223.38,560.7h0A46,46,0,0,0,195.58,538,46.5,46.5,0,0,0,185,536.27h0l-.38,0v0h0c-.59,0-1.18,0-1.77,0a45.88,45.88,0,0,0,0,91.76c.72,0,1.44,0,2.16-.05h0a46.5,46.5,0,0,0,10.62-1.76,44.89,44.89,0,0,0,9.6-4,45.84,45.84,0,0,0,23.48-39.48c0-.19,0-.38,0-.57A45.62,45.62,0,0,0,223.38,560.7Zm-21.83,46.35a29.26,29.26,0,0,1-6,3.75,29.88,29.88,0,1,1-12.79-56.9,30.5,30.5,0,0,1,6.16.63h0a28.93,28.93,0,0,1,6.63,2.24,29.89,29.89,0,0,1,6,50.27Z"/><path class="cls-6" d="M212.67,583.79a29.82,29.82,0,0,1-11.12,23.26,29.26,29.26,0,0,1-6,3.75,29.88,29.88,0,1,1-12.79-56.9,30.5,30.5,0,0,1,6.16.63h0a28.93,28.93,0,0,1,6.63,2.24A29.86,29.86,0,0,1,212.67,583.79Z"/><text class="cls-7" transform="translate(166.5 602.86)">₹</text><path class="cls-5" d="M161.48,502.91h0a45.75,45.75,0,0,0-38.42-24.42h0l-.38,0v0h0l-1.77,0a45.88,45.88,0,0,0,0,91.75c.72,0,1.44,0,2.16,0h0a46,46,0,0,0,10.62-1.75,46,46,0,0,0,33.08-43.5c0-.19,0-.38,0-.57A45.59,45.59,0,0,0,161.48,502.91Zm-21.83,46.35a29.87,29.87,0,1,1-12.6-52.52h0a29.4,29.4,0,0,1,6.63,2.23,29.9,29.9,0,0,1,6,50.28Z"/><path class="cls-6" d="M150.77,526a29.82,29.82,0,1,1-23.72-29.26h0a29.4,29.4,0,0,1,6.63,2.23A29.88,29.88,0,0,1,150.77,526Z"/><text class="cls-7" transform="translate(104.6 545.06)">₹</text><path class="cls-5" d="M227.87,412.7h0a45.75,45.75,0,0,0-38.42-24.42h0l-.38,0v0h0q-.87,0-1.77,0a45.88,45.88,0,0,0,0,91.75c.73,0,1.45,0,2.16-.05h0a46.5,46.5,0,0,0,10.62-1.75,45.14,45.14,0,0,0,9.59-4,45.82,45.82,0,0,0,23.49-39.47c0-.19,0-.38,0-.58A45.7,45.7,0,0,0,227.87,412.7ZM206,459.05a29.87,29.87,0,1,1-12.61-52.52h0a29.48,29.48,0,0,1,6.64,2.23,29.9,29.9,0,0,1,6,50.28Z"/><path class="cls-6" d="M217.16,435.78a29.83,29.83,0,1,1-23.73-29.25h0a29.48,29.48,0,0,1,6.64,2.23A29.87,29.87,0,0,1,217.16,435.78Z"/><text class="cls-7" transform="translate(170.99 454.85)">₹</text><polyline class="cls-5" points="249.04 704.91 142.12 704.91 129.75 704.91 28.75 704.91 14.93 704.91 14.93 660.8 129.75 660.8 184.46 660.8"/><rect class="cls-5" x="54.28" y="780.05" width="245.84" height="44.12"/><rect class="cls-5" x="28.76" y="704.91" width="232.03" height="39.87"/><rect class="cls-5" x="23.45" y="744.78" width="237.34" height="35.27"/><polyline class="cls-8" points="249.04 704.91 142.12 704.91 129.75 704.91 129.75 660.8 253.17 660.8"/><rect class="cls-8" x="142.12" y="704.91" width="118.67" height="39.87"/><rect class="cls-8" x="129.76" y="744.78" width="131.03" height="35.27"/><rect class="cls-8" x="168.03" y="780.05" width="132.09" height="44.12"/><rect class="cls-9" x="241.38" y="744.78" width="19.4" height="35.27"/><rect class="cls-9" x="246.25" y="660.8" width="13.82" height="44.12"/><line class="cls-10" x1="234.07" y1="819.39" x2="234.07" y2="780.93"/><line class="cls-10" x1="204.66" y1="819.39" x2="204.66" y2="780.93"/><line class="cls-10" x1="177.2" y1="819.39" x2="177.2" y2="780.93"/><line class="cls-10" x1="142.12" y1="819.39" x2="142.12" y2="780.93"/><line class="cls-10" x1="116.25" y1="819.39" x2="116.25" y2="780.93"/><line class="cls-10" x1="85.06" y1="819.39" x2="85.06" y2="780.93"/><line class="cls-10" x1="54.28" y1="819.39" x2="54.28" y2="780.93"/><line class="cls-10" x1="229.96" y1="780.05" x2="229.96" y2="744.78"/><line class="cls-10" x1="203.24" y1="780.05" x2="203.24" y2="744.78"/><line class="cls-10" x1="173.83" y1="780.05" x2="173.83" y2="744.78"/><line class="cls-10" x1="146.37" y1="780.05" x2="146.37" y2="744.78"/><line class="cls-10" x1="111.28" y1="780.05" x2="111.28" y2="744.78"/><line class="cls-10" x1="85.42" y1="780.05" x2="85.42" y2="744.78"/><line class="cls-10" x1="54.23" y1="780.05" x2="54.23" y2="744.78"/><line class="cls-10" x1="23.45" y1="780.05" x2="23.45" y2="744.78"/><line class="cls-10" x1="244.57" y1="744.78" x2="244.57" y2="704.91"/><line class="cls-10" x1="216.65" y1="744.78" x2="216.65" y2="704.91"/><line class="cls-10" x1="185.91" y1="744.78" x2="185.91" y2="704.91"/><line class="cls-10" x1="157.21" y1="744.78" x2="157.21" y2="704.91"/><line class="cls-10" x1="120.54" y1="744.78" x2="120.54" y2="704.91"/><line class="cls-10" x1="93.5" y1="744.78" x2="93.5" y2="704.91"/><line class="cls-10" x1="60.91" y1="744.78" x2="60.91" y2="704.91"/><line class="cls-10" x1="28.73" y1="744.78" x2="28.73" y2="704.91"/><line class="cls-10" x1="221.89" y1="702.79" x2="221.89" y2="660.8"/><line class="cls-10" x1="195.12" y1="702.79" x2="195.12" y2="660.8"/><line class="cls-10" x1="165.65" y1="702.79" x2="165.65" y2="660.8"/><line class="cls-10" x1="138.12" y1="702.79" x2="138.12" y2="660.8"/><line class="cls-10" x1="102.96" y1="702.79" x2="102.96" y2="660.8"/><line class="cls-10" x1="77.04" y1="702.79" x2="77.04" y2="660.8"/><line class="cls-10" x1="45.78" y1="702.79" x2="45.78" y2="660.8"/><line class="cls-10" x1="14.93" y1="702.79" x2="14.93" y2="660.8"/><path class="cls-11" d="M322.34,836.5c-12.89,0-28.78-13-30.55-14.51l-2.23-4.51-5-111.5-5,111.5L277.41,822c-1.77,1.49-17.66,14.51-30.55,14.51a15.43,15.43,0,0,1-11.41-4.59c-4-4.15-5.77-10.57-5.45-19.63V666.6l-2,2H193.57l-6.25-6.25v-25a112.84,112.84,0,0,1,21.9-67.11,109.84,109.84,0,0,1,57.49-40.74A89,89,0,0,1,278,526.83l.92-.07h11.32l.92.07a89,89,0,0,1,11.31,2.71A109.88,109.88,0,0,1,360,570.28a112.84,112.84,0,0,1,21.9,67.11v25l-6.25,6.25H341.22l-2-2V812.28c.32,9.06-1.46,15.49-5.45,19.63A15.43,15.43,0,0,1,322.34,836.5Z"/><path class="cls-12" d="M290.26,533a84.43,84.43,0,0,1,10.44,2.52c44.73,13.39,74.93,55.17,74.93,101.86v25H341.22c0-37.16-8.27-57.8-8.27-57.8V812.39c.51,13.56-4.3,17.86-10.61,17.86-11,0-26.53-13-26.53-13l-5.55-124.55c-1.82-7.8-3.69-10.4-5.36-10.4-3.36,0-6,10.4-6,10.4l-5.55,124.55s-15.54,13-26.53,13c-6.31,0-11.12-4.3-10.61-17.86V604.58S228,625.22,228,662.38H193.57v-25c0-46.69,30.2-88.47,74.93-101.86A84.43,84.43,0,0,1,278.94,533h11.32m0-12.5H278.94l-1.84.14a92.65,92.65,0,0,0-12.19,2.9,116,116,0,0,0-60.73,43,119,119,0,0,0-23.11,70.8v25l12.5,12.5h30.18V812.17c-.36,10.79,2,18.67,7.2,24.07a21.5,21.5,0,0,0,15.91,6.51c14.79,0,31.39-13.3,34.57-16l3.17-6.42,3.17,6.42c3.18,2.67,19.78,16,34.57,16a21.5,21.5,0,0,0,15.91-6.51c5.21-5.4,7.56-13.28,7.2-24.07V674.88h30.18l12.5-12.5v-25A119,119,0,0,0,365,566.59a116,116,0,0,0-60.74-43,92.32,92.32,0,0,0-12.18-2.9l-1.84-.14Z"/><path class="cls-11" d="M282,525.32a40.66,40.66,0,1,1,40.65-40.66A40.71,40.71,0,0,1,282,525.32Z"/><path class="cls-12" d="M282,450.25a34.41,34.41,0,1,1-34.41,34.41A34.41,34.41,0,0,1,282,450.25m0-12.5a46.91,46.91,0,1,0,46.91,46.91A47,47,0,0,0,282,437.75Z"/><path class="cls-11" d="M433.92,860.7c-14.59,0-32.76-14.89-34.78-16.59l-2.23-4.51-6.4-143.84c-.11-.44-.21-.86-.31-1.25q-.21.66-.39,1.32l-6.4,143.77-2.23,4.51c-2,1.7-20.19,16.59-34.78,16.59a16.94,16.94,0,0,1-12.52-5c-4.42-4.6-6.4-11.82-6-22.06V662.68L324.5,666H284.6l-6.25-6.25v-29a129.91,129.91,0,0,1,25.2-77.24,126.42,126.42,0,0,1,66.15-46.87,101.88,101.88,0,0,1,13-3.11l.92-.07h13.14l.92.07a101.88,101.88,0,0,1,13,3.11,126.38,126.38,0,0,1,66.15,46.87A129.91,129.91,0,0,1,502,630.8v29L495.72,666H455.83l-3.35-3.35V833.62c.36,10.24-1.61,17.46-6,22.06A16.92,16.92,0,0,1,433.92,860.7Z"/><path class="cls-12" d="M396.73,509.76a96.51,96.51,0,0,1,12.1,2.92c51.87,15.53,86.89,64,86.89,118.12v29h-39.9c0-43.09-9.59-67-9.59-67v241c.59,15.72-5,20.71-12.31,20.71-12.73,0-30.76-15.13-30.76-15.13l-6.43-144.43c-2.11-9-4.28-12.06-6.22-12.06-3.89,0-6.92,12.06-6.92,12.06l-6.43,144.43s-18,15.13-30.76,15.13c-7.32,0-12.89-5-12.3-20.71v-241s-9.6,23.94-9.6,67H284.6v-29c0-54.15,35-102.59,86.89-118.12a96.51,96.51,0,0,1,12.1-2.92h13.14m0-12.5H383.59l-1.84.13a107.8,107.8,0,0,0-13.84,3.31,132.57,132.57,0,0,0-69.4,49.17A136.11,136.11,0,0,0,272.1,630.8v29l12.5,12.5h37V833.51c-.41,12,2.13,20.64,7.78,26.5a23,23,0,0,0,17,6.94c16.46,0,35.21-15,38.8-18.05l4.45-9,.51-11.43.51,11.43,4.45,9c3.59,3,22.35,18.05,38.8,18.05a23,23,0,0,0,17-6.94c5.65-5.86,8.2-14.53,7.79-26.5V672.28h37l12.5-12.5v-29a136.11,136.11,0,0,0-26.41-80.93,132.55,132.55,0,0,0-69.39-49.17,108.14,108.14,0,0,0-13.85-3.31l-1.84-.13Z"/><path class="cls-11" d="M387.1,503.14A46.15,46.15,0,1,1,433.25,457,46.2,46.2,0,0,1,387.1,503.14Z"/><path class="cls-12" d="M387.1,417.09A39.9,39.9,0,1,1,347.2,457a39.91,39.91,0,0,1,39.9-39.9m0-12.5A52.4,52.4,0,1,0,439.5,457a52.46,52.46,0,0,0-52.4-52.4Z"/><path class="cls-11" d="M828.58,836.5c-12.89,0-28.77-13-30.54-14.51l-2.23-4.51-5-111.49-5,111.49L783.66,822c-1.77,1.49-17.66,14.51-30.55,14.51a15.41,15.41,0,0,1-11.41-4.59c-4-4.14-5.77-10.57-5.45-19.63V666.6l-2,2h-34.4l-6.25-6.25v-25a112.84,112.84,0,0,1,21.9-67.11A109.8,109.8,0,0,1,773,529.54a89,89,0,0,1,11.31-2.71l.91-.07h11.33l.92.07a89.4,89.4,0,0,1,11.31,2.71,109.88,109.88,0,0,1,57.49,40.74,112.91,112.91,0,0,1,21.9,67.11v25l-6.25,6.25H847.47l-2-2V812.28c.33,9.06-1.46,15.48-5.44,19.62a15.4,15.4,0,0,1-11.41,4.6Z"/><path class="cls-12" d="M796.51,533A84.43,84.43,0,0,1,807,535.53c44.72,13.39,74.93,55.17,74.93,101.86v25H847.47c0-37.16-8.28-57.8-8.28-57.8V812.39c.51,13.56-4.3,17.86-10.6,17.86-11,0-26.54-13-26.54-13l-5.54-124.55s-2.61-10.4-6-10.4c-1.68,0-3.54,2.6-5.37,10.4l-5.54,124.55s-15.55,13-26.53,13c-6.31,0-11.12-4.3-10.61-17.86V604.58s-8.28,20.64-8.28,57.8h-34.4v-25c0-46.69,30.2-88.47,74.93-101.86A84.58,84.58,0,0,1,785.18,533h11.33m0-12.5H785.18l-1.84.14a93.13,93.13,0,0,0-12.18,2.9,116,116,0,0,0-60.74,43,119.1,119.1,0,0,0-23.1,70.8v25l12.5,12.5H730V812.17c-.37,10.79,2,18.67,7.2,24.07a21.5,21.5,0,0,0,15.91,6.51c14.79,0,31.39-13.3,34.57-16l3.17-6.42,3.17,6.42c3.18,2.67,19.78,16,34.57,16a21.53,21.53,0,0,0,15.91-6.51c5.2-5.4,7.56-13.28,7.19-24.07V674.88h30.19l12.5-12.5v-25a119,119,0,0,0-23.11-70.8,116,116,0,0,0-60.74-43,92.72,92.72,0,0,0-12.18-2.9l-1.84-.14Z"/><path class="cls-11" d="M793.49,525.32a40.66,40.66,0,1,1,40.65-40.66A40.71,40.71,0,0,1,793.49,525.32Z"/><path class="cls-12" d="M793.49,450.25a34.41,34.41,0,1,1-34.41,34.41,34.41,34.41,0,0,1,34.41-34.41m0-12.5a46.91,46.91,0,1,0,46.9,46.91,47,47,0,0,0-46.9-46.91Z"/><path class="cls-11" d="M729,860.7c-14.59,0-32.75-14.89-34.78-16.59L692,839.6l-6.4-143.77q-.18-.66-.39-1.32c-.1.39-.21.81-.31,1.25L678.53,839.6l-2.22,4.51c-2,1.7-20.19,16.59-34.79,16.59a16.9,16.9,0,0,1-12.51-5c-4.43-4.6-6.41-11.82-6-22.06V662.68L619.62,666h-39.9l-6.25-6.25v-29a129.92,129.92,0,0,1,25.21-77.24,126.4,126.4,0,0,1,66.14-46.87,101.77,101.77,0,0,1,13-3.11l.92-.07h13.13l.92.07a101.77,101.77,0,0,1,13,3.11,126.4,126.4,0,0,1,66.14,46.87A129.92,129.92,0,0,1,797.1,630.8v29L790.85,666H751l-3.35-3.35V833.62c.37,10.24-1.61,17.45-6,22a16.87,16.87,0,0,1-12.51,5Z"/><path class="cls-12" d="M691.85,509.76a96.51,96.51,0,0,1,12.1,2.92c51.87,15.53,86.9,64,86.9,118.12v29H751c0-43.09-9.6-67-9.6-67v241c.59,15.72-5,20.71-12.3,20.71-12.74,0-30.77-15.13-30.77-15.13l-6.43-144.43s-3-12.06-6.91-12.06c-2,0-4.11,3-6.22,12.06l-6.43,144.43s-18,15.13-30.77,15.13c-7.32,0-12.89-5-12.3-20.71v-241s-9.6,23.94-9.6,67h-39.9v-29c0-54.15,35-102.59,86.9-118.12a96.51,96.51,0,0,1,12.1-2.92h13.13m0-12.5H678.72l-1.84.13A108.14,108.14,0,0,0,663,500.7a132.57,132.57,0,0,0-69.4,49.17,136.11,136.11,0,0,0-26.41,80.93v29l12.5,12.5h37V833.51c-.41,12,2.14,20.64,7.79,26.5a23,23,0,0,0,17,6.94c16.46,0,35.21-15,38.8-18.05l4.46-9,.5-11.43.51,11.43,4.46,9c3.59,3,22.34,18.05,38.8,18.05a23,23,0,0,0,17-6.94c5.65-5.86,8.2-14.53,7.79-26.5V672.28h37l12.5-12.5v-29a136.11,136.11,0,0,0-26.41-80.93,132.57,132.57,0,0,0-69.4-49.17,108.14,108.14,0,0,0-13.85-3.31l-1.84-.13Z"/><path class="cls-11" d="M688.35,501.58a46.15,46.15,0,1,1,46.15-46.15A46.2,46.2,0,0,1,688.35,501.58Z"/><path class="cls-12" d="M688.35,415.53a39.9,39.9,0,1,1-39.9,39.9,39.91,39.91,0,0,1,39.9-39.9m0-12.5a52.4,52.4,0,1,0,52.4,52.4,52.46,52.46,0,0,0-52.4-52.4Z"/><path class="cls-11" d="M589,891.71c-16.71,0-37.7-17.22-40-19.18L546.7,868l-7.5-168.46a47.06,47.06,0,0,0-1.62-4.91c-.4,1.27-.85,2.86-1.33,4.84L528.75,868l-2.23,4.51c-2.34,2-23.33,19.18-40,19.18a18.75,18.75,0,0,1-13.88-5.56c-5-5.17-7.2-13.37-6.77-25.06V658.77l-5,5H414.12l-6.25-6.25V623.57a151,151,0,0,1,29.3-89.8,146.93,146.93,0,0,1,76.9-54.49,116.3,116.3,0,0,1,15-3.61l.92-.07h15.38l.92.07a116.3,116.3,0,0,1,15,3.61,146.93,146.93,0,0,1,76.9,54.49,151.05,151.05,0,0,1,29.31,89.8v33.94l-6.25,6.25H614.61l-5-5V861.09c.42,11.69-1.79,19.89-6.77,25.06A18.79,18.79,0,0,1,589,891.71Z"/><path class="cls-12" d="M545.41,481.85a112.68,112.68,0,0,1,14.17,3.42c60.74,18.18,101.75,74.9,101.75,138.3v33.94H614.61c0-50.46-11.24-78.49-11.24-78.49V861.2c.69,18.41-5.84,24.26-14.4,24.26-14.92,0-36-17.72-36-17.72l-7.53-169.12s-3.53-14.12-8.09-14.12c-2.28,0-4.81,3.53-7.29,14.12L522.5,867.74s-21.1,17.72-36,17.72c-8.57,0-15.1-5.85-14.4-24.26V579s-11.24,28-11.24,78.49H414.12V623.57c0-63.4,41-120.12,101.74-138.3A113.15,113.15,0,0,1,530,481.85h15.38m0-12.5H530l-1.84.14a122.61,122.61,0,0,0-15.91,3.8,153.09,153.09,0,0,0-80.15,56.79,158.3,158.3,0,0,0-30.51,93.49v33.94l12.5,12.5h45.46V861c-.47,13.42,2.32,23.08,8.52,29.51A24.82,24.82,0,0,0,486.48,898c8.55,0,18.71-3.62,30.19-10.74a131,131,0,0,0,13.87-9.9l4.45-9L537.72,807l2.73,61.33,4.46,9a131.51,131.51,0,0,0,13.86,9.9C570.26,894.34,580.42,898,589,898a24.83,24.83,0,0,0,18.38-7.48c6.2-6.43,9-16.09,8.52-29.51V670h45.46l12.5-12.5V623.57a158.3,158.3,0,0,0-30.51-93.49,153.13,153.13,0,0,0-80.15-56.79,122.11,122.11,0,0,0-15.92-3.8l-1.84-.14Z"/><circle class="cls-11" cx="541.31" cy="421.67" r="52.97"/><path class="cls-12" d="M541.31,375a46.72,46.72,0,1,1-46.72,46.72A46.72,46.72,0,0,1,541.31,375m0-12.5a59.22,59.22,0,1,0,59.22,59.22,59.29,59.29,0,0,0-59.22-59.22Z"/></svg>