<svg id="Layer_1" data-name="Layer 1" xmlns="http://www.w3.org/2000/svg" viewBox="0 0 1482.89 1080"><defs><style>.cls-1{opacity:0.22;}.cls-2,.cls-4,.cls-6{fill:none;stroke-miterlimit:10;}.cls-2{stroke:#2b3990;}.cls-2,.cls-4{stroke-width:7.36px;}.cls-3{fill:#2b3990;}.cls-4{stroke:#009444;}.cls-5{fill:#009444;}.cls-6{stroke:#231f20;stroke-linecap:round;stroke-width:19.62px;}.cls-7{fill:#231f20;}.cls-8{fill:#00a651;}</style></defs><g class="cls-1"><polyline class="cls-2" points="60.62 666.04 74.39 575.94 94.82 606.21 128.25 513.74 173.33 446.59 197.1 457.56 233.45 339.17 244.72 431.85 264.73 403.04 296.07 639.74 327.77 426.83 364.95 520.76 413.79 347.93 431.25 562.19 477.67 457.56 517.74 719.9 549.05 606.21 566.31 693.6 590.38 673.56 635.47 757.47 670.54 585.47 739.2 678.57 790.77 606.21 827.09 713.37 850.88 548.32 868.41 599.67 880.94 570.86 917.26 674.81 937.3 526.4 969.44 585.47 1013.69 277.8 1032.48 385.98 1057.53 324.14 1096.35 556.47 1102.61 486.95 1172.33 622.58 1183.6 413.06 1214.08 493.96 1240.38 446.59 1270.43 713.37 1276.7 526.4 1291.61 575.94 1319.28 488.2 1379.39 693.6 1443.67 484.99"/><polygon class="cls-3" points="1454.83 492.36 1449.11 467.33 1430.29 484.8 1454.83 492.36"/></g><g class="cls-1"><polyline class="cls-4" points="50.57 668.55 66.88 575.94 83.55 617.2 120.73 512 179.6 465.66 219.65 331.02 230.94 408.05 244.72 376.74 296.07 556.47 316.5 446.59 354.93 526.4 394.15 379.24 412.54 526.4 470.15 526.4 521.5 656.02 534.02 622.58 599.15 713.37 729.17 568.36 760.71 674.81 766.24 622.58 852.13 708.41 865.91 647.26 882.19 676.06 914.75 542.06 924.77 585.47 924.77 556.47 946.9 630.76 993.65 314.12 1013.69 360.46 1031.23 331.02 1090.09 493.96 1150.2 606.21 1157.72 485.7 1172.33 569.61 1216.58 385.98 1246.64 630.76 1281.71 404.29 1354.35 659.78 1360.19 622.58 1371.46 639.74 1423.36 430.99"/><polygon class="cls-5" points="1434.92 437.74 1427.82 413.06 1409.99 431.54 1434.92 437.74"/></g><path class="cls-6" d="M815.94,556.46a104.94,104.94,0,0,0,21.6-63.87C837.54,433.7,789,386,729.17,386S620.81,433.7,620.81,492.59a104.94,104.94,0,0,0,21.6,63.87"/><path class="cls-6" d="M822.5,622.58c42-29,69.56-77,69.56-131.32,0-88.5-72.93-160.24-162.89-160.24S566.31,402.76,566.31,491.26c0,54.33,27.5,102.35,69.55,131.32"/><path class="cls-7" d="M730.63,721.5s-18.83,7.12-43.08-19.32c0,0-13.78-8.13-16.74-57.43h5.42v-8.64l-3.45.5s-6.4-11.69-12.31-2c0,0-7.38,30,9.71,64.73.53,1.08,1.21,2.08,1.78,3.15a56.78,56.78,0,0,0,42.67,28.7s-2,9.66,4.92,11.18L721,759.11s-27.08,2.55-26.59,26.94h36.19"/><path class="cls-7" d="M730.36,721.5s18.83,7.12,43.08-19.32c0,0,13.79-8.13,16.74-57.43h-5.42v-8.64l3.45.5s6.4-11.69,12.31-2c0,0,7.38,30-9.7,64.73-.54,1.08-1.22,2.08-1.78,3.15a56.83,56.83,0,0,1-42.68,28.7s2,9.66-4.92,11.18L740,759.11s27.08,2.55,26.59,26.94H730.36"/><path class="cls-7" d="M730.36,713.37s-48.47-7.25-49.58-44.61V596h10.71c5.91.76,3.27-11.06,3.27-11.06h-14V572.31h10.34c7,0,3.64-12.2,3.64-12.2h-14V546.77h10.91a1.32,1.32,0,0,0,.94-.38c5.2-5.3-1.14-12.2-1.14-12.2H680.78v-13h8.52a5.18,5.18,0,0,0,4.64-7.2,19.51,19.51,0,0,0-2.45-4.24H680.78c.74-52.23,49.85-52.23,49.85-52.23Z"/><path class="cls-7" d="M729.44,713.37s48.48-7.25,49.59-44.61V596H768.32c-5.91.76-3.27-11.06-3.27-11.06h14V572.31H768.69c-7,0-3.64-12.2-3.64-12.2h14V546.77H768.12a1.32,1.32,0,0,1-.94-.38c-5.2-5.3,1.14-12.2,1.14-12.2H779v-13h-8.52a5.18,5.18,0,0,1-4.64-7.2,19.51,19.51,0,0,1,2.45-4.24H779c-.74-52.23-49.85-52.23-49.85-52.23Z"/><ellipse class="cls-8" cx="1068.8" cy="526.4" rx="11.27" ry="113.34"/><ellipse class="cls-8" cx="1013.69" cy="526.4" rx="11.27" ry="79.81"/><ellipse class="cls-8" cx="1127.24" cy="526.4" rx="11.27" ry="79.81"/><ellipse class="cls-8" cx="1183.6" cy="526.4" rx="11.27" ry="49.54"/><ellipse class="cls-8" cx="1301.74" cy="526.4" rx="11.27" ry="113.34"/><ellipse class="cls-8" cx="1246.64" cy="526.4" rx="11.27" ry="79.81"/><ellipse class="cls-8" cx="1360.19" cy="526.4" rx="11.27" ry="79.81"/><ellipse class="cls-8" cx="1416.55" cy="526.4" rx="11.27" ry="49.54"/><ellipse class="cls-8" cx="958.17" cy="526.4" rx="11.27" ry="49.54"/><ellipse class="cls-8" cx="149.93" cy="526.4" rx="11.27" ry="113.34"/><ellipse class="cls-8" cx="94.82" cy="526.4" rx="11.27" ry="79.81"/><ellipse class="cls-8" cx="208.38" cy="526.4" rx="11.27" ry="79.81"/><ellipse class="cls-8" cx="264.73" cy="526.4" rx="11.27" ry="49.54"/><ellipse class="cls-8" cx="382.88" cy="526.4" rx="11.27" ry="113.34"/><ellipse class="cls-8" cx="327.77" cy="526.4" rx="11.27" ry="79.81"/><ellipse class="cls-8" cx="441.32" cy="526.4" rx="11.27" ry="79.81"/><ellipse class="cls-8" cx="497.68" cy="526.4" rx="11.27" ry="49.54"/><ellipse class="cls-8" cx="39.3" cy="526.4" rx="11.27" ry="49.54"/></svg>