<svg id="Layer_1" data-name="Layer 1" xmlns="http://www.w3.org/2000/svg" viewBox="0 0 1080 1080"><defs><style>.cls-1{fill:#092d46;}.cls-2{fill:#d1d3d4;}.cls-3{fill:#edeeef;}.cls-14,.cls-4{fill:#b5cd58;}.cls-5{fill:#e63e2e;}.cls-14,.cls-15,.cls-5{opacity:0.73;}.cls-15,.cls-6{fill:#32afa7;}.cls-7{fill:#ed1c24;}.cls-8{fill:none;stroke:#231f20;stroke-linecap:round;stroke-miterlimit:10;stroke-width:1.16px;}.cls-9{fill:#262262;}.cls-10{fill:#0d111e;}.cls-11{fill:#fff200;}.cls-12{fill:#dbdce1;}.cls-13{fill:#2b3990;}.cls-16{fill:#cd242b;}.cls-17{fill:#231f20;}</style></defs><rect class="cls-1" x="121.2" y="270.63" width="863.25" height="582.56" rx="32.4"/><rect class="cls-2" x="155.09" y="309.02" width="799.04" height="513.81" rx="29.28"/><rect class="cls-3" x="272.81" y="360.41" width="272.89" height="434.41" rx="77.02"/><rect class="cls-3" x="563.43" y="360.41" width="272.89" height="434.41" rx="77.02"/><circle class="cls-4" cx="596.54" cy="636.08" r="8.1"/><circle class="cls-5" cx="596.54" cy="664.32" r="8.1"/><circle class="cls-6" cx="596.54" cy="694.92" r="8.1"/><circle class="cls-7" cx="596.54" cy="727.9" r="8.1"/><line class="cls-8" x1="618.02" y1="636.08" x2="795.19" y2="636.08"/><line class="cls-8" x1="618.02" y1="664.32" x2="795.19" y2="664.32"/><line class="cls-8" x1="616.54" y1="694.92" x2="793.71" y2="694.92"/><line class="cls-8" x1="616.54" y1="727.9" x2="793.71" y2="727.9"/><path class="cls-9" d="M897.46,498.2c0-97.68-84-176.88-187.7-176.88S522.08,400.52,522.08,498.2s84,176.85,187.68,176.85A200,200,0,0,0,754.58,670l31.2,69.85,31.88-14.23L787.93,659C852.57,631.09,897.46,569.59,897.46,498.2ZM709.76,645.71c-87.42,0-158.27-66.78-158.27-149.16S622.34,347.4,709.76,347.4s158.29,66.79,158.29,149.15S797.17,645.71,709.76,645.71Z"/><rect class="cls-10" x="58.68" y="844.75" width="995.23" height="83.27" rx="34.23"/><circle class="cls-11" cx="908.71" cy="885.48" r="11.64"/><circle class="cls-11" cx="808.47" cy="885.48" r="11.64"/><rect class="cls-12" x="405.68" y="874.71" width="297.86" height="23.36" rx="11.68"/><rect class="cls-13" x="802.28" y="715.17" width="82.04" height="252.68" rx="36.03" transform="translate(-239.8 345.32) rotate(-20.33)"/><circle class="cls-5" cx="414.74" cy="453.53" r="61.67"/><circle class="cls-14" cx="364.8" cy="537.36" r="61.67"/><circle class="cls-15" cx="457.55" cy="537.36" r="61.67"/><circle class="cls-7" cx="984.45" cy="885.48" r="11.64"/><circle class="cls-4" cx="304.83" cy="638.72" r="8.1"/><circle class="cls-5" cx="304.83" cy="666.96" r="8.1"/><circle class="cls-6" cx="304.83" cy="697.56" r="8.1"/><circle class="cls-7" cx="304.83" cy="730.54" r="8.1"/><line class="cls-8" x1="326.31" y1="638.72" x2="503.48" y2="638.72"/><line class="cls-8" x1="326.31" y1="666.96" x2="503.48" y2="666.96"/><line class="cls-8" x1="324.83" y1="697.56" x2="501.99" y2="697.56"/><line class="cls-8" x1="324.83" y1="730.54" x2="501.99" y2="730.54"/><path class="cls-6" d="M648.76,495.64a51,51,0,0,1,1-10l-51.21-12.78a103.93,103.93,0,0,0,12.32,74.77l45.59-25A50.75,50.75,0,0,1,648.76,495.64Z"/><path class="cls-16" d="M774.92,423.11l-37.68,37.67A51.09,51.09,0,0,1,742,524.54l44.21,27.22a103.61,103.61,0,0,0-11.31-128.65Z"/><path class="cls-4" d="M699.87,391a103.6,103.6,0,0,0-96.78,66.57L652,477.57a51.12,51.12,0,0,1,79-22.4l32-42.73A103.06,103.06,0,0,0,699.87,391Z"/><path class="cls-5" d="M738.2,529.45a51.09,51.09,0,0,1-75.45,1.3l-38.16,35a103.62,103.62,0,0,0,154.33-4.22Z"/><line class="cls-17" x1="786.23" y1="551.76" x2="742.02" y2="524.54"/><line class="cls-17" x1="774.92" y1="423.11" x2="737.24" y2="460.78"/><line class="cls-17" x1="763.04" y1="412.44" x2="731.07" y2="455.17"/><line class="cls-17" x1="778.92" y1="561.49" x2="738.2" y2="529.45"/><line class="cls-17" x1="652.04" y1="477.57" x2="603.09" y2="457.52"/><line class="cls-17" x1="649.76" y1="485.6" x2="598.55" y2="472.82"/><line class="cls-17" x1="656.46" y1="522.63" x2="610.87" y2="547.59"/><line class="cls-17" x1="662.75" y1="530.75" x2="624.59" y2="565.71"/></svg>