<svg id="Layer_1" data-name="Layer 1" xmlns="http://www.w3.org/2000/svg" viewBox="0 0 1080 1080"><defs><style>.cls-1,.cls-3{fill:#fac95c;}.cls-2{fill:#f89725;}.cls-3{font-size:59.28px;font-family:SegoeUI-Semibold, Segoe UI;font-weight:600;}.cls-4{fill:#2e3192;}.cls-5{fill:#006bb6;}.cls-6{fill:#f1f2f2;}.cls-7,.cls-8{fill:#231f20;}.cls-8{opacity:0.14;}.cls-13,.cls-16,.cls-18,.cls-9{fill:none;}.cls-13,.cls-17,.cls-18,.cls-9{stroke:#231f20;}.cls-9{stroke-linecap:round;stroke-width:4.49px;}.cls-13,.cls-16,.cls-17,.cls-18,.cls-9{stroke-miterlimit:10;}.cls-10{fill:#00974e;}.cls-11{fill:#00a651;}.cls-12{fill:#d1d3d4;}.cls-13{stroke-width:1.8px;}.cls-14{fill:#e6e7e8;}.cls-15{fill:#bcbec0;}.cls-16{stroke:#d1d3d4;stroke-width:5.39px;}.cls-17{fill:#fff;}.cls-17,.cls-18{stroke-width:14.37px;}</style></defs><path class="cls-1" d="M392.94,453.4h0a49.64,49.64,0,0,0-41.66-26.48h0l-.41,0v0h0c-.64,0-1.28,0-1.92,0a49.76,49.76,0,0,0,0,99.52q1.18,0,2.34-.06h0a50.17,50.17,0,0,0,11.51-1.9A48.56,48.56,0,0,0,373.2,520a49.67,49.67,0,0,0,25.47-42.81c0-.21,0-.41,0-.62A49.44,49.44,0,0,0,392.94,453.4Zm-23.67,50.27A32.41,32.41,0,1,1,348.92,446a32.69,32.69,0,0,1,6.68.68h0a32,32,0,0,1,7.19,2.42,32.42,32.42,0,0,1,6.48,54.53Z"/><path class="cls-2" d="M381.33,478.44A32.4,32.4,0,1,1,348.92,446a32.69,32.69,0,0,1,6.68.68h0a32,32,0,0,1,7.19,2.42A32.4,32.4,0,0,1,381.33,478.44Z"/><text class="cls-3" transform="translate(331.25 499.12)">₹</text><path class="cls-1" d="M312.37,372.32h0a49.63,49.63,0,0,0-41.66-26.49h0l-.41,0v0h0c-.64,0-1.28,0-1.93,0a49.76,49.76,0,0,0,0,99.51c.8,0,1.58,0,2.35,0h0a50.17,50.17,0,0,0,11.51-1.91A49,49,0,0,0,292.63,439a49.69,49.69,0,0,0,25.47-42.82c0-.2,0-.41,0-.62A49.37,49.37,0,0,0,312.37,372.32ZM288.7,422.59a32.41,32.41,0,1,1-20.36-57.65,33.44,33.44,0,0,1,6.69.68h0a31.56,31.56,0,0,1,7.19,2.43,32.42,32.42,0,0,1,6.48,54.53Z"/><path class="cls-2" d="M300.76,397.36a32.4,32.4,0,1,1-32.42-32.42,33.44,33.44,0,0,1,6.69.68h0a31.56,31.56,0,0,1,7.19,2.43A32.38,32.38,0,0,1,300.76,397.36Z"/><text class="cls-3" transform="translate(250.68 418.04)">₹</text><path class="cls-1" d="M392.94,289.47h0A49.63,49.63,0,0,0,351.28,263h0l-.41,0v0h0c-.64,0-1.28,0-1.92,0a49.76,49.76,0,1,0,0,99.52c.79,0,1.57,0,2.34-.05h0a50.17,50.17,0,0,0,11.51-1.91,49,49,0,0,0,10.41-4.36,49.69,49.69,0,0,0,25.47-42.82c0-.2,0-.41,0-.62A49.44,49.44,0,0,0,392.94,289.47Zm-23.67,50.27a31.7,31.7,0,0,1-6.48,4.07,32.41,32.41,0,1,1-13.87-61.71,32.69,32.69,0,0,1,6.68.68h0a31.56,31.56,0,0,1,7.19,2.43,32.41,32.41,0,0,1,6.48,54.52Z"/><path class="cls-2" d="M381.33,314.51a32.34,32.34,0,0,1-12.06,25.23,31.7,31.7,0,0,1-6.48,4.07,32.41,32.41,0,1,1-13.87-61.71,32.69,32.69,0,0,1,6.68.68h0a31.56,31.56,0,0,1,7.19,2.43A32.38,32.38,0,0,1,381.33,314.51Z"/><text class="cls-3" transform="translate(331.25 335.19)">₹</text><path class="cls-1" d="M367.64,537.73h0A49.72,49.72,0,0,0,326,511.23h0l-.42,0v0h0c-.64,0-1.28,0-1.93,0a49.76,49.76,0,0,0,0,99.51c.79,0,1.58,0,2.35-.05h0a50.26,50.26,0,0,0,11.51-1.9,49.85,49.85,0,0,0,35.88-47.18c0-.21,0-.42,0-.62A49.41,49.41,0,0,0,367.64,537.73ZM344,588a32.41,32.41,0,1,1-20.36-57.64,32.79,32.79,0,0,1,6.69.68h0a31.54,31.54,0,0,1,7.19,2.42A32.42,32.42,0,0,1,344,588Z"/><path class="cls-2" d="M356,562.77a32.41,32.41,0,1,1-32.42-32.41,32.79,32.79,0,0,1,6.69.68h0a31.54,31.54,0,0,1,7.19,2.42A32.4,32.4,0,0,1,356,562.77Z"/><text class="cls-3" transform="translate(305.95 583.45)">₹</text><polygon class="cls-4" points="467.97 527.57 436.02 527.57 478.77 636.34 510.35 636.34 467.97 527.57"/><polygon class="cls-5" points="467.97 527.57 436.02 527.57 388.44 636.34 421.7 636.34 467.97 527.57"/><circle class="cls-4" cx="869.68" cy="507.18" r="120.6"/><path class="cls-6" d="M871.73,576.65l-55.21.15v-.15c0-48.84,24.92-89,55.21-89s55.21,40.19,55.21,89Z"/><ellipse class="cls-7" cx="904.22" cy="464.26" rx="17.82" ry="16.66"/><ellipse class="cls-7" cx="834.33" cy="465.21" rx="17.82" ry="16.66"/><path class="cls-8" d="M826.17,526.62c22.39-18.77,76.51-23.51,76.51-23.51-17-18.54-30-15.49-30-15.49L850,494.9C835.29,502.13,826.17,526.62,826.17,526.62Z"/><ellipse class="cls-6" cx="869.12" cy="461.74" rx="40.28" ry="37.66"/><path class="cls-9" d="M913.13,471.35c-9.59,20-38,14.51-38,14.51"/><polygon class="cls-10" points="108.31 399.36 130.15 393.85 64.63 323.22 45.04 410.82 66.89 407.02 126.22 613.53 171.13 613.53 108.31 399.36"/><polygon class="cls-10" points="336.18 613.53 234.29 396.14 190.06 396.14 291.95 613.53 336.18 613.53"/><polygon class="cls-10" points="397.7 501.63 355.23 501.63 412.06 613.53 454.05 613.53 397.7 501.63"/><polygon class="cls-11" points="190.06 396.14 234.29 396.14 171.13 613.53 126.22 613.53 190.06 396.14"/><polygon class="cls-11" points="397.7 501.63 355.23 501.63 291.95 613.53 336.18 613.53 397.7 501.63"/><path class="cls-12" d="M247.25,889.42c-6.71,7.62-58.94-27.07-116.65-77.49s-99-97.5-92.32-105.13a4,4,0,0,1,3.14-1h0c13.62.21,61.32,33,113.51,78.54C212.64,834.72,254,881.79,247.25,889.42Z"/><path class="cls-13" d="M535.44,759a4,4,0,0,1-3.16,1Z"/><path class="cls-13" d="M524.12,798.86a4,4,0,0,1-3.16,1Z"/><path class="cls-14" d="M535.44,759l-3.16,1-25,8.28-28.46,9.42L256.49,851.34c6.71-7.63-34.61-54.7-92.32-105.13C138,723.36,113,703.75,92.84,689.84s-35.37-22.06-42.16-22.15l275.79-91.32c6.73-7.63,59,27.07,116.67,77.5S542.17,751.36,535.44,759Z"/><path class="cls-12" d="M256.77,850.35C250,858,197.82,823.3,140.11,772.88c-32-28-58.92-54.86-75.45-74.6C51.36,682.4,44.8,671.15,47.8,667.75l3.17-1c6.78.09,22.08,8.3,42.16,22.15s45.18,33.52,71.32,56.37C222.16,795.65,263.48,842.72,256.77,850.35Z"/><path class="cls-14" d="M525.2,798.11l-3.16,1L246.25,890.47c6.73-7.63-34.61-54.7-92.3-105.13C101.76,739.75,54.06,707,40.44,706.8l25-8.28c16.52,19.74,43.47,46.66,75.44,74.6,57.71,50.43,109.94,85.11,116.67,77.48L479.88,777l28.46-9.43C521.65,783.46,528.2,794.71,525.2,798.11Z"/><path class="cls-15" d="M74.91,738.23c12.74,10,25.57,19.95,38.21,30.11,6.32,5.07,12.65,10.14,18.92,15.29s12.58,10.23,18.79,15.45,12.44,10.41,18.57,15.71,12.23,10.66,18.32,16l9,8.2c3,2.79,5.91,5.57,8.82,8.41l4.32,4.31c1.43,1.44,2.8,3,4.2,4.43.71.73,1.36,1.53,2,2.31s1.36,1.53,2,2.36,1.28,1.61,1.84,2.52c.28.46.58.88.83,1.38l.35.81a1.43,1.43,0,0,1,.14.52l.05.3a1.2,1.2,0,0,1-.14.66l-.47.78-.77-.51c-11.66-7.86-23.36-15.69-35-23.66-5.82-3.95-11.6-8-17.38-12S156,823.58,150.28,819.5c-11.46-8.17-22.85-16.43-34-25q-4.2-3.19-8.34-6.47c-2.77-2.17-5.5-4.39-8.22-6.62-1.38-1.1-2.71-2.25-4.05-3.38s-2.68-2.28-4-3.46S89,772.22,87.76,771a33.57,33.57,0,0,1-3.58-3.87,34.46,34.46,0,0,0,3.65,3.8c1.3,1.18,2.6,2.36,4,3.49s2.67,2.28,4,3.38,2.72,2.23,4.11,3.31c2.76,2.17,5.53,4.34,8.35,6.44s5.61,4.24,8.45,6.31q17,12.54,34.31,24.55,8.64,6,17.36,12c5.79,4,11.58,8,17.42,11.91,11.62,7.92,23.33,15.7,35,23.52l-1.23.27c-.13.11-.11.41-.12.29a.36.36,0,0,1,0-.07.48.48,0,0,0-.06-.21l-.27-.59c-.2-.4-.5-.81-.74-1.21-.5-.82-1.18-1.59-1.75-2.39s-1.29-1.53-1.93-2.29-1.3-1.54-2-2.26c-1.39-1.46-2.72-3-4.15-4.4l-4.27-4.3c-2.89-2.83-5.82-5.62-8.76-8.4l-8.94-8.23c-6-5.38-12.07-10.79-18.23-16.06-3.07-2.64-6.11-5.32-9.21-7.94l-9.26-7.87c-6.15-5.28-12.4-10.44-18.62-15.64s-12.47-10.35-18.74-15.49C100.08,758.68,87.46,748.49,74.91,738.23Z"/><path class="cls-15" d="M73.11,687.55c12.75,10,25.57,20,38.21,30.1,6.33,5.08,12.66,10.14,18.92,15.29S142.82,743.18,149,748.4s12.44,10.4,18.57,15.71,12.24,10.66,18.32,16l9,8.21c3,2.78,5.91,5.57,8.83,8.4l4.31,4.31c1.44,1.44,2.8,3,4.2,4.44.71.73,1.36,1.53,2,2.3s1.35,1.53,2,2.37,1.27,1.6,1.83,2.52c.28.46.58.88.83,1.38l.36.8a2.24,2.24,0,0,1,.14.52l0,.3a1.23,1.23,0,0,1-.14.67l-.47.78-.76-.51c-11.67-7.87-23.36-15.7-35-23.66q-8.73-5.94-17.38-12c-5.79-4-11.52-8.08-17.25-12.17-11.47-8.16-22.86-16.43-34.05-25-2.8-2.13-5.58-4.28-8.33-6.48s-5.51-4.38-8.23-6.61c-1.37-1.1-2.71-2.25-4-3.39s-2.68-2.28-4-3.46-2.6-2.36-3.88-3.57a34.48,34.48,0,0,1-3.58-3.87A34.37,34.37,0,0,0,86,720.25c1.3,1.19,2.6,2.37,4,3.5s2.68,2.27,4,3.38,2.71,2.23,4.11,3.3c2.76,2.18,5.53,4.34,8.34,6.45s5.62,4.23,8.45,6.31q17,12.52,34.31,24.55,8.65,6,17.36,12T184,791.63c11.62,7.93,23.34,15.71,35,23.53l-1.23.27c-.12.1-.11.4-.12.29l0-.08a.48.48,0,0,0-.06-.2l-.27-.59c-.2-.4-.5-.81-.74-1.22-.5-.81-1.17-1.58-1.75-2.38s-1.29-1.53-1.93-2.3-1.29-1.53-2-2.25c-1.38-1.47-2.72-3-4.14-4.41l-4.27-4.3c-2.89-2.83-5.83-5.61-8.76-8.4l-8.94-8.22c-6.06-5.38-12.08-10.8-18.24-16.06-3.07-2.65-6.11-5.32-9.2-7.94l-9.27-7.87c-6.15-5.28-12.4-10.44-18.61-15.64S117,723.51,110.74,718.37C98.28,708,85.67,697.81,73.11,687.55Z"/><line class="cls-16" x1="173.84" y1="731.69" x2="399.79" y2="634.92"/><path class="cls-15" d="M399.51,650.36,290,696.12c66.35,58.4,76.65,83.47,76.65,83.47L474.09,727c-35.16-53.2-70.94-79.12-70.94-79.12Z"/><circle class="cls-17" cx="614.54" cy="645.56" r="212.03"/><ellipse class="cls-18" cx="621.73" cy="644.95" rx="125.61" ry="212.03"/><path class="cls-18" d="M784.82,771.93c-14.82-10.56-32.5-19.65-52.35-26.87-32.22-11.71-70.14-18.47-110.74-18.47S543.2,733.35,511,745.08c-24,8.73-44.89,20.22-61.34,33.75"/><path class="cls-18" d="M451.39,510.12c16.33,13,36.81,24.12,60.27,32.6,32.08,11.55,69.76,18.22,110.07,18.22s78-6.67,110.06-18.22c19.33-7,36.63-15.73,51.25-25.88"/><line class="cls-17" x1="621.73" y1="856.98" x2="621.73" y2="432.91"/><line class="cls-18" x1="826.57" y1="645.56" x2="402.5" y2="645.56"/><path class="cls-15" d="M95.65,668l238.47-82c35,12.64,47.94,33.28,47.94,33.28l-226.84,94C122.87,682.33,89.14,668,89.14,668Z"/><path class="cls-7" d="M931.86,653.66,998.37,776a71.52,71.52,0,0,1-66.51-122.36Z"/><path class="cls-7" d="M1048.2,726.71a70.93,70.93,0,0,1-21.61,34.08l-64.94-123a70.69,70.69,0,0,1,37.44.49A71.5,71.5,0,0,1,1048.2,726.71Z"/><line class="cls-7" x1="998.37" y1="776.02" x2="931.86" y2="653.66"/><line class="cls-7" x1="1026.59" y1="760.79" x2="961.65" y2="637.81"/><polygon class="cls-7" points="1022.64 771.28 1007.64 780.2 1004.37 774.09 937.66 649.02 933.31 640.84 949.95 631.6 954.36 640.11 1019.91 766.03 1022.64 771.28"/><path class="cls-7" d="M900.67,700.64,727.34,809.55l6.46,12.72-17.95,11.18,10.45,23.19,20.42-8.92,5.64,10.16,187.48-82.33C896.45,745.27,900.67,700.64,900.67,700.64Z"/></svg>