<svg id="Layer_1" data-name="Layer 1" xmlns="http://www.w3.org/2000/svg" viewBox="0 0 1080 1080"><defs><style>.cls-1,.cls-3{fill:#fac95c;}.cls-2{fill:#f89725;}.cls-3{font-size:57.53px;font-family:SegoeUI-Semibold, Segoe UI;font-weight:600;}.cls-4{fill:#00974e;}.cls-5{fill:#00a651;}.cls-6{fill:#003367;}.cls-7{fill:#006bb6;}.cls-20,.cls-8{fill:none;stroke:#231f20;stroke-miterlimit:10;}.cls-8{stroke-width:1.31px;}.cls-9{fill:#2e3192;}.cls-10{fill:#000037;}.cls-11{fill:#e6e7e8;}.cls-12{fill:#0d111e;}.cls-13{fill:#ecda00;}.cls-14{fill:#717377;}.cls-15{fill:#007440;}.cls-16{fill:#00b04c;}.cls-17{fill:#fff;}.cls-18{fill:#0059aa;}.cls-19{fill:#231f20;}.cls-20{stroke-width:5.23px;}</style></defs><path class="cls-1" d="M173.57,569.22h0a48.22,48.22,0,0,0-40.44-25.7h0l-.4,0v0h0c-.62,0-1.24,0-1.87,0a48.29,48.29,0,0,0,0,96.57c.77,0,1.53,0,2.28,0h0a48.27,48.27,0,0,0,46-47.63c0-.2,0-.4,0-.6A48.11,48.11,0,0,0,173.57,569.22Zm-23,48.79a31.63,31.63,0,0,1-6.28,4,31.46,31.46,0,1,1-13.47-59.89,31.61,31.61,0,0,1,6.49.66h0a30.84,30.84,0,0,1,7,2.35A31.46,31.46,0,0,1,150.59,618Z"/><path class="cls-2" d="M162.3,593.52a31.37,31.37,0,1,1-25-30.79h0a30.84,30.84,0,0,1,7,2.35A31.44,31.44,0,0,1,162.3,593.52Z"/><text class="cls-3" transform="translate(113.7 613.59)">₹</text><path class="cls-1" d="M916.68,525.38h0a48.47,48.47,0,0,0-29.26-23.86,49,49,0,0,0-11.18-1.84h0l-.4,0v0h0c-.62,0-1.24,0-1.87,0a48.29,48.29,0,0,0,0,96.58c.77,0,1.53,0,2.28-.05h0a49,49,0,0,0,11.18-1.85,47.63,47.63,0,0,0,10.1-4.24,48.23,48.23,0,0,0,24.72-41.55c0-.2,0-.4,0-.6A48.1,48.1,0,0,0,916.68,525.38Zm-23,48.78a30.21,30.21,0,0,1-6.28,4A31.46,31.46,0,1,1,874,518.22a31.61,31.61,0,0,1,6.49.67h0a30.86,30.86,0,0,1,7,2.36,31.45,31.45,0,0,1,6.28,52.91Z"/><path class="cls-2" d="M905.41,549.68a31.38,31.38,0,0,1-11.71,24.48,30.21,30.21,0,0,1-6.28,4A31.46,31.46,0,1,1,874,518.22a31.61,31.61,0,0,1,6.49.67h0a30.86,30.86,0,0,1,7,2.36A31.44,31.44,0,0,1,905.41,549.68Z"/><text class="cls-3" transform="translate(856.81 569.75)">₹</text><path class="cls-1" d="M1023.6,461.53h0a48.41,48.41,0,0,0-29.26-23.86,48.93,48.93,0,0,0-11.17-1.84h0l-.4,0v0h0c-.62,0-1.23,0-1.86,0a48.29,48.29,0,1,0,0,96.58c.77,0,1.52,0,2.27-.05h0a48.93,48.93,0,0,0,11.17-1.85,47.71,47.71,0,0,0,10.11-4.24,48.24,48.24,0,0,0,24.72-41.55v-.6A48,48,0,0,0,1023.6,461.53Zm-23,48.78a31.47,31.47,0,0,1-19.75,7,31.46,31.46,0,0,1,0-62.92,32.15,32.15,0,0,1,6.48.66h0a30.7,30.7,0,0,1,7,2.36,31.46,31.46,0,0,1,6.29,52.91Z"/><path class="cls-2" d="M1012.33,485.83a31.37,31.37,0,0,1-11.7,24.48,31.47,31.47,0,0,1-19.75,7,31.46,31.46,0,0,1,0-62.92,32.15,32.15,0,0,1,6.48.66h0a30.7,30.7,0,0,1,7,2.36A31.41,31.41,0,0,1,1012.33,485.83Z"/><text class="cls-3" transform="translate(963.74 505.9)">₹</text><path class="cls-1" d="M986.89,413.24h0a48.23,48.23,0,0,0-40.43-25.7h0l-.4,0v0h0c-.62,0-1.24,0-1.87,0a48.29,48.29,0,0,0,0,96.57c.77,0,1.53,0,2.28-.05h0a48.39,48.39,0,0,0,11.17-1.85,47.41,47.41,0,0,0,10.1-4.24,48.23,48.23,0,0,0,24.72-41.55c0-.2,0-.4,0-.6A48,48,0,0,0,986.89,413.24Zm-23,48.79a31.56,31.56,0,0,1-19.76,7,31.46,31.46,0,1,1,6.49-62.25h0a30.36,30.36,0,0,1,7,2.35A31.47,31.47,0,0,1,963.92,462Z"/><path class="cls-2" d="M975.62,437.54A31.44,31.44,0,0,1,963.92,462a31.56,31.56,0,0,1-19.76,7,31.46,31.46,0,1,1,6.49-62.25h0a30.36,30.36,0,0,1,7,2.35A31.44,31.44,0,0,1,975.62,437.54Z"/><text class="cls-3" transform="translate(927.02 457.61)">₹</text><path class="cls-1" d="M125.28,437.47h0A48.47,48.47,0,0,0,96,413.6a49.1,49.1,0,0,0-11.18-1.84h0l-.4,0v0h0c-.61,0-1.23,0-1.86,0a48.29,48.29,0,0,0,0,96.58c.77,0,1.52,0,2.27,0h0A49.11,49.11,0,0,0,96,506.38a48.38,48.38,0,0,0,34.82-45.79c0-.2,0-.4,0-.6A48.1,48.1,0,0,0,125.28,437.47Zm-23,48.78A30.74,30.74,0,0,1,96,490.2,31.45,31.45,0,1,1,89,431h0a30.94,30.94,0,0,1,7,2.36,31.45,31.45,0,0,1,6.28,52.91Z"/><path class="cls-2" d="M114,461.77a31.38,31.38,0,0,1-11.71,24.48A30.74,30.74,0,0,1,96,490.2,31.45,31.45,0,1,1,89,431h0a30.94,30.94,0,0,1,7,2.36A31.44,31.44,0,0,1,114,461.77Z"/><text class="cls-3" transform="translate(65.41 481.84)">₹</text><path class="cls-1" d="M182.91,392.5h0a48.21,48.21,0,0,0-40.44-25.71h0l-.41,0v0h0c-.62,0-1.24,0-1.87,0a48.29,48.29,0,0,0,0,96.57c.77,0,1.53,0,2.28-.05h0a48.57,48.57,0,0,0,11.18-1.85,47.09,47.09,0,0,0,10.1-4.23,48.24,48.24,0,0,0,24.72-41.55c0-.2,0-.4,0-.6A48.11,48.11,0,0,0,182.91,392.5Zm-23,48.79a31.63,31.63,0,0,1-6.28,3.95,31.46,31.46,0,1,1-13.47-59.89,31.61,31.61,0,0,1,6.49.66h0a30.84,30.84,0,0,1,7,2.35,31.46,31.46,0,0,1,6.28,52.92Z"/><path class="cls-2" d="M171.64,416.8a31.37,31.37,0,1,1-25-30.79h0a30.84,30.84,0,0,1,7,2.35A31.44,31.44,0,0,1,171.64,416.8Z"/><text class="cls-3" transform="translate(123.04 436.87)">₹</text><path class="cls-1" d="M978.41,618.24h0a48.43,48.43,0,0,0-29.26-23.86A49.11,49.11,0,0,0,938,592.53h0l-.41,0v0h0c-.62,0-1.24,0-1.87,0a48.29,48.29,0,0,0,0,96.57c.77,0,1.53,0,2.28,0h0a48.57,48.57,0,0,0,11.18-1.85,47.3,47.3,0,0,0,10.1-4.23A48.24,48.24,0,0,0,984,641.37c0-.2,0-.4,0-.6A48.14,48.14,0,0,0,978.41,618.24Zm-23,48.79a31.63,31.63,0,0,1-6.28,4,31.46,31.46,0,1,1-13.47-59.89,32.15,32.15,0,0,1,6.48.66h0A31.46,31.46,0,0,1,955.43,667Z"/><path class="cls-2" d="M967.14,642.55a31.45,31.45,0,1,1-31.46-31.46,32.15,32.15,0,0,1,6.48.66h0a31.43,31.43,0,0,1,25,30.79Z"/><text class="cls-3" transform="translate(918.54 662.61)">₹</text><polygon class="cls-4" points="1010.6 623.9 992.65 618.55 1046.49 550.01 1062.6 635.02 1044.64 631.33 995.87 831.74 958.96 831.74 1010.6 623.9"/><polygon class="cls-4" points="823.31 831.74 907.05 620.78 943.41 620.78 859.66 831.74 823.31 831.74"/><polygon class="cls-4" points="772.74 723.15 807.65 723.15 760.94 831.74 726.43 831.74 772.74 723.15"/><polygon class="cls-5" points="943.41 620.78 907.05 620.78 958.96 831.74 995.87 831.74 943.41 620.78"/><polygon class="cls-5" points="772.74 723.15 807.65 723.15 859.66 831.74 823.31 831.74 772.74 723.15"/><rect class="cls-6" x="58.85" y="774.49" width="270.61" height="60.53"/><rect class="cls-7" x="33.92" y="716.63" width="271.5" height="57.86"/><line class="cls-8" x1="51.77" y1="733.34" x2="289.29" y2="733.34"/><line class="cls-8" x1="50.91" y1="745.56" x2="288.44" y2="745.56"/><line class="cls-8" x1="50.91" y1="760.02" x2="288.44" y2="760.02"/><rect class="cls-4" x="73.09" y="686.95" width="242.12" height="32.05"/><rect class="cls-5" x="58.85" y="652.54" width="258.14" height="35.61"/><rect class="cls-9" x="19.64" y="617.34" width="309.81" height="35.19"/><line class="cls-8" x1="71.6" y1="787.39" x2="309.13" y2="787.39"/><line class="cls-8" x1="71.6" y1="800.29" x2="309.13" y2="800.29"/><line class="cls-8" x1="71.6" y1="812.58" x2="309.13" y2="812.58"/><line class="cls-8" x1="71.6" y1="824.86" x2="309.13" y2="824.86"/><line class="cls-8" x1="91.92" y1="710.18" x2="329.45" y2="710.18"/><line class="cls-8" x1="69.06" y1="675.85" x2="306.58" y2="675.85"/><line class="cls-8" x1="69.15" y1="661.74" x2="306.68" y2="661.74"/><line class="cls-8" x1="89.55" y1="699.16" x2="327.08" y2="699.16"/><rect class="cls-10" x="287.98" y="496.02" width="444.44" height="299.93" rx="16.68"/><rect class="cls-11" x="305.43" y="515.78" width="411.39" height="264.53" rx="15.07"/><rect class="cls-12" x="255.79" y="791.61" width="512.39" height="42.87" rx="17.62"/><circle class="cls-13" cx="690.98" cy="812.58" r="5.99"/><circle class="cls-13" cx="641.82" cy="812.58" r="5.99"/><rect class="cls-14" x="434.45" y="807.03" width="153.35" height="12.02" rx="6.01"/><circle class="cls-13" cx="732.42" cy="812.58" r="5.99"/><path class="cls-15" d="M268.67,418.18H163.93c-16.62.4-16.62,16.42-16.62,16.42v98.13a74.19,74.19,0,0,1,12.49-22.27,24.5,24.5,0,0,1,18.85-8.77h90c15.62.6,16.62-7,16.62-7V427.79C284.89,417.58,268.67,418.18,268.67,418.18Z"/><path class="cls-16" d="M198.93,447.32H303.67c16.62.4,16.62,16.42,16.62,16.42v98.13a73.8,73.8,0,0,0-12.74-22.56,23.81,23.81,0,0,0-18.23-8.48H198.93c-15.62.6-16.63-7-16.63-7V456.93C182.7,446.72,198.93,447.32,198.93,447.32Z"/><circle class="cls-17" cx="251.14" cy="492.08" r="5.2"/><circle class="cls-17" cx="278.58" cy="492.08" r="5.2"/><circle class="cls-17" cx="222.5" cy="492.08" r="5.2"/><path class="cls-9" d="M722.4,604.46H827.14c16.63.4,16.63,16.42,16.63,16.42V719a74.25,74.25,0,0,0-12.5-22.28A24.48,24.48,0,0,0,812.43,688h-90c-15.62.6-16.62-7-16.62-7v-66.9C706.18,603.86,722.4,604.46,722.4,604.46Z"/><path class="cls-18" d="M792.14,633.6H687.4C670.78,634,670.78,650,670.78,650v98.14a73.75,73.75,0,0,1,12.74-22.57,23.83,23.83,0,0,1,18.23-8.48h90.39c15.63.61,16.63-7,16.63-7v-66.9C808.37,633,792.14,633.6,792.14,633.6Z"/><circle class="cls-17" cx="739.93" cy="678.36" r="5.2"/><circle class="cls-17" cx="712.49" cy="678.36" r="5.2"/><circle class="cls-17" cx="768.57" cy="678.36" r="5.2"/><circle class="cls-19" cx="434.84" cy="612.32" r="26.06"/><path class="cls-19" d="M454.53,647.94c-17.85-19.12-34.43,0-34.43,0v41.44h31.24l3.19-19.76,24.22-14c13.39-7.65-5.1-17.21-5.1-17.21Z"/><rect class="cls-19" x="390.14" y="694.36" width="90.53" height="17.21" rx="5"/><polygon class="cls-19" points="456.84 779.85 416.08 779.85 404.12 716.32 467.66 716.32 456.84 779.85"/><rect class="cls-20" x="435.89" y="554.23" width="175.63" height="126.23" rx="13.46"/><rect class="cls-19" x="498.36" y="622.6" width="14.98" height="25.34"/><rect class="cls-19" x="523.7" y="603.95" width="19.12" height="43.99"/><rect class="cls-19" x="553.03" y="581.16" width="19.76" height="67.58"/><line class="cls-8" x1="34.06" y1="640.77" x2="271.59" y2="640.77"/><line class="cls-8" x1="34.06" y1="629" x2="271.59" y2="629"/></svg>