<svg id="Layer_1" data-name="Layer 1" xmlns="http://www.w3.org/2000/svg" viewBox="0 0 1080 1080"><defs><style>.cls-1{fill:#2e3192;}.cls-2{fill:#006bb6;}.cls-3,.cls-5{fill:#fac95c;}.cls-4{fill:#f89725;}.cls-5{font-size:53.46px;font-family:SegoeUI-Semibold, Segoe UI;font-weight:600;}.cls-6{fill:#00974e;}.cls-7{fill:#00a651;}.cls-8{fill:#fbae3b;}.cls-9{fill:#7a461d;}.cls-10,.cls-15{fill:none;}.cls-10{stroke:#f7941d;}.cls-10,.cls-16{stroke-miterlimit:10;stroke-width:1.53px;}.cls-11,.cls-16{fill:#231f20;}.cls-12{fill:#f1f2f2;}.cls-13{fill:#ecda00;}.cls-14{fill:#717377;}.cls-15,.cls-16{stroke:#231f20;}.cls-15{stroke-linecap:round;stroke-linejoin:round;stroke-width:7.64px;}</style></defs><path class="cls-1" d="M196.84,635l-4.44-15.6L179.67,623a46,46,0,0,0-11.78-15.12l6.86-12.32-14.17-7.89-6.73,12.09a46.18,46.18,0,0,0-20.46-2.54l-3.62-12.73L114.17,589l3.62,12.73A46.17,46.17,0,0,0,102.2,614L90.64,607.6l-7.89,14.17,11.56,6.44A46,46,0,0,0,92,648l-12.73,3.62,4.44,15.6,12.73-3.62a46,46,0,0,0,12.93,16l-6,10.82,14.17,7.89,6.15-11a46.11,46.11,0,0,0,19.05,2.05l3.62,12.73,15.6-4.44-3.62-12.73a45.91,45.91,0,0,0,15.58-12.35L185.49,679l7.89-14.17-11.57-6.44a45.88,45.88,0,0,0,2.3-19.75Zm-44.69,6.86A14.17,14.17,0,0,1,144.26,656a13.72,13.72,0,0,1-2.32.88,14.16,14.16,0,0,1-10.07-26.35,14.62,14.62,0,0,1,2.32-.88,14.1,14.1,0,0,1,3.31-.53,13.92,13.92,0,0,1,5.19.77,14.11,14.11,0,0,1,8.48,8,12.3,12.3,0,0,1,.51,1.48A14,14,0,0,1,152.15,641.86Z"/><path class="cls-2" d="M163.22,627.71a28.84,28.84,0,0,0-3.69-4.78,29.58,29.58,0,0,0-50.27,13.6,29.37,29.37,0,0,0,.35,14.87,29.71,29.71,0,0,0,3.3,7.49,29.06,29.06,0,0,0,4.77,5.85,29.58,29.58,0,0,0,49.19-14.68,29.25,29.25,0,0,0,.79-6.75,29.83,29.83,0,0,0-4.44-15.6Zm-11.07,14.15A14.17,14.17,0,0,1,144.26,656a13.72,13.72,0,0,1-2.32.88,14.16,14.16,0,0,1-10.07-26.35,14.62,14.62,0,0,1,2.32-.88,14.1,14.1,0,0,1,3.31-.53,13.92,13.92,0,0,1,5.19.77,14.11,14.11,0,0,1,8.48,8,12.3,12.3,0,0,1,.51,1.48A14,14,0,0,1,152.15,641.86Z"/><path class="cls-1" d="M195.42,454.79l-6.69-23.22L169.79,437a68.51,68.51,0,0,0-17.63-22.46l10.17-18.39L141.18,384.5l-10,18.05a68.55,68.55,0,0,0-30.48-3.69l-5.46-18.94L72,386.61l5.46,18.94A68.58,68.58,0,0,0,54.34,424L37.08,414.5,25.39,435.64l17.26,9.54a68.74,68.74,0,0,0-3.32,29.45l-18.94,5.45,6.69,23.22L46,497.85a68.44,68.44,0,0,0,19.35,23.84l-8.92,16.15L77.6,549.52l9.1-16.47a68.67,68.67,0,0,0,28.39,3L120.55,555l23.22-6.7-5.46-18.94a68.43,68.43,0,0,0,23.16-18.48l17.26,9.54,11.69-21.15-17.27-9.54a68.23,68.23,0,0,0,3.33-29.44Zm-66.54,10.44a21.14,21.14,0,0,1-11.68,21.15,21.37,21.37,0,0,1-3.46,1.33,22.55,22.55,0,0,1-2.27.52,21,21,0,0,1-10.39-.83,21,21,0,0,1-11.5-9.52,21.14,21.14,0,0,1-2.65-8.23A21.11,21.11,0,0,1,98.61,448.5a21.23,21.23,0,0,1,8.38-2.14,21,21,0,0,1,7.74,1.12,21.28,21.28,0,0,1,6.44,3.56,21,21,0,0,1,6.23,8.35,18,18,0,0,1,.77,2.21A20.24,20.24,0,0,1,128.88,465.23Z"/><path class="cls-2" d="M145.3,444.09a43.61,43.61,0,0,0-5.52-7.11,44.2,44.2,0,0,0-20.85-12.22,43.25,43.25,0,0,0-11.15-1.41A44.24,44.24,0,0,0,84.56,430a42.7,42.7,0,0,0-7.92,6.32A44.37,44.37,0,0,0,65,457.51a44.18,44.18,0,0,0,5.56,33.28,43.21,43.21,0,0,0,7.13,8.7,44.25,44.25,0,0,0,21.45,11.14,43,43,0,0,0,9,.89,44.06,44.06,0,0,0,31.13-13,44.33,44.33,0,0,0,11.69-21.15A43.35,43.35,0,0,0,152,467.31a44.24,44.24,0,0,0-6.69-23.22Zm-16.42,21.14a21.14,21.14,0,0,1-11.68,21.15,21.37,21.37,0,0,1-3.46,1.33,22.55,22.55,0,0,1-2.27.52,21,21,0,0,1-10.39-.83,21,21,0,0,1-11.5-9.52,21.14,21.14,0,0,1-2.65-8.23A21.11,21.11,0,0,1,98.61,448.5a21.23,21.23,0,0,1,8.38-2.14,21,21,0,0,1,7.74,1.12,21.28,21.28,0,0,1,6.44,3.56,21,21,0,0,1,6.23,8.35,18,18,0,0,1,.77,2.21A20.24,20.24,0,0,1,128.88,465.23Z"/><path class="cls-3" d="M980.52,529.29h0a44.84,44.84,0,0,0-37.58-23.89h0l-.37,0v0h0c-.58,0-1.15,0-1.73,0a44.88,44.88,0,0,0,0,89.76c.71,0,1.41,0,2.11-.05h0a45,45,0,0,0,10.38-1.72,44,44,0,0,0,9.39-3.93,44.82,44.82,0,0,0,23-38.62c0-.19,0-.37,0-.56A44.69,44.69,0,0,0,980.52,529.29Zm-21.36,45.34a29.23,29.23,0,1,1-18.35-52,29.84,29.84,0,0,1,6,.61h0a28.68,28.68,0,0,1,6.49,2.19,29.24,29.24,0,0,1,5.84,49.18Z"/><path class="cls-4" d="M970,551.87a29.17,29.17,0,0,1-10.88,22.76,29.23,29.23,0,1,1-18.35-52,29.84,29.84,0,0,1,6,.61h0a28.68,28.68,0,0,1,6.49,2.19A29.22,29.22,0,0,1,970,551.87Z"/><text class="cls-5" transform="translate(924.88 570.52)">₹</text><path class="cls-3" d="M866.74,585.39h0a44.81,44.81,0,0,0-37.58-23.89h0l-.37,0v0h0c-.57,0-1.15,0-1.73,0a44.88,44.88,0,0,0,0,89.76c.71,0,1.42,0,2.11-.05h0a45.67,45.67,0,0,0,10.39-1.71,45,45,0,0,0,32.36-42.56c0-.18,0-.37,0-.56A44.73,44.73,0,0,0,866.74,585.39Zm-21.35,45.34a29.43,29.43,0,0,1-5.84,3.67,29.23,29.23,0,1,1-6.49-55h0a29.24,29.24,0,0,1,12.33,51.37Z"/><path class="cls-4" d="M856.27,608a29.19,29.19,0,1,1-23.21-28.62h0A29.25,29.25,0,0,1,856.27,608Z"/><text class="cls-5" transform="translate(811.1 626.63)">₹</text><path class="cls-3" d="M920,472.75h0a45,45,0,0,0-27.19-22.18,45.58,45.58,0,0,0-10.39-1.71h0l-.37,0v0h0c-.58,0-1.15,0-1.74,0a44.88,44.88,0,1,0,0,89.75c.72,0,1.42,0,2.12,0h0a45.59,45.59,0,0,0,10.39-1.72,44.95,44.95,0,0,0,32.36-42.55c0-.19,0-.38,0-.56A44.62,44.62,0,0,0,920,472.75Zm-21.35,45.34a28,28,0,0,1-5.84,3.67,29.23,29.23,0,1,1-6.49-55h0a28.65,28.65,0,0,1,6.49,2.18,29.24,29.24,0,0,1,5.84,49.18Z"/><path class="cls-4" d="M909.49,495.34a29.18,29.18,0,0,1-10.88,22.75,28,28,0,0,1-5.84,3.67,29.23,29.23,0,1,1-6.49-55h0a28.65,28.65,0,0,1,6.49,2.18A29.23,29.23,0,0,1,909.49,495.34Z"/><text class="cls-5" transform="translate(864.32 513.99)">₹</text><path class="cls-3" d="M984.9,384.51h0a44.81,44.81,0,0,0-37.57-23.89h0l-.37,0v0h0c-.58,0-1.15,0-1.74,0a44.88,44.88,0,0,0,0,89.76c.72,0,1.42,0,2.12-.05h0a45,45,0,0,0,10.38-1.72,43.47,43.47,0,0,0,9.39-3.94,44.81,44.81,0,0,0,23-38.61c0-.19,0-.37,0-.56A44.55,44.55,0,0,0,984.9,384.51Zm-21.35,45.34a29.23,29.23,0,1,1-18.36-52,29.86,29.86,0,0,1,6,.61h0a28.68,28.68,0,0,1,6.49,2.19,29.24,29.24,0,0,1,5.84,49.18Z"/><path class="cls-4" d="M974.43,407.09a29.17,29.17,0,0,1-10.88,22.76,29.23,29.23,0,1,1-18.36-52,29.86,29.86,0,0,1,6,.61h0a28.68,28.68,0,0,1,6.49,2.19A29.22,29.22,0,0,1,974.43,407.09Z"/><text class="cls-5" transform="translate(929.26 425.74)">₹</text><polygon class="cls-6" points="1019.85 636.25 1004.11 631.56 1051.33 571.46 1065.45 646 1049.7 642.77 1006.94 818.49 974.58 818.49 1019.85 636.25"/><polygon class="cls-6" points="855.63 818.49 929.06 633.51 960.94 633.51 887.51 818.49 855.63 818.49"/><polygon class="cls-6" points="811.29 723.27 841.9 723.27 800.95 818.49 770.68 818.49 811.29 723.27"/><polygon class="cls-7" points="960.94 633.51 929.06 633.51 974.58 818.49 1006.94 818.49 960.94 633.51"/><polygon class="cls-7" points="811.29 723.27 841.9 723.27 887.51 818.49 855.63 818.49 811.29 723.27"/><polyline class="cls-3" points="242.66 722.97 138.07 722.97 125.97 722.97 27.17 722.97 13.65 722.97 13.65 679.82 125.97 679.82 179.49 679.82"/><rect class="cls-3" x="52.14" y="796.47" width="240.49" height="43.16"/><rect class="cls-3" x="27.17" y="722.97" width="226.98" height="39"/><rect class="cls-3" x="21.98" y="761.97" width="232.17" height="34.51"/><polyline class="cls-8" points="242.66 722.97 138.07 722.97 125.97 722.97 125.97 679.82 246.7 679.82"/><rect class="cls-8" x="138.07" y="722.97" width="116.08" height="39"/><rect class="cls-8" x="125.98" y="761.97" width="128.17" height="34.51"/><rect class="cls-8" x="163.41" y="796.47" width="129.21" height="43.16"/><rect class="cls-9" x="254.15" y="722.97" width="13.52" height="39"/><rect class="cls-9" x="235.17" y="761.97" width="18.98" height="34.51"/><rect class="cls-9" x="239.94" y="679.81" width="13.52" height="43.16"/><line class="cls-10" x1="254.15" y1="834.95" x2="254.15" y2="797.33"/><line class="cls-10" x1="228.02" y1="834.95" x2="228.02" y2="797.33"/><line class="cls-10" x1="199.25" y1="834.95" x2="199.25" y2="797.33"/><line class="cls-10" x1="172.38" y1="834.95" x2="172.38" y2="797.33"/><line class="cls-10" x1="138.06" y1="834.95" x2="138.06" y2="797.33"/><line class="cls-10" x1="112.76" y1="834.95" x2="112.76" y2="797.33"/><line class="cls-10" x1="82.25" y1="834.95" x2="82.25" y2="797.33"/><line class="cls-10" x1="52.14" y1="834.95" x2="52.14" y2="797.33"/><line class="cls-10" x1="223.99" y1="796.47" x2="223.99" y2="761.97"/><line class="cls-10" x1="197.86" y1="796.47" x2="197.86" y2="761.97"/><line class="cls-10" x1="169.09" y1="796.47" x2="169.09" y2="761.97"/><line class="cls-10" x1="142.22" y1="796.47" x2="142.22" y2="761.97"/><line class="cls-10" x1="107.91" y1="796.47" x2="107.91" y2="761.97"/><line class="cls-10" x1="82.6" y1="796.47" x2="82.6" y2="761.97"/><line class="cls-10" x1="52.1" y1="796.47" x2="52.1" y2="761.97"/><line class="cls-10" x1="21.98" y1="796.47" x2="21.98" y2="761.97"/><line class="cls-10" x1="238.29" y1="761.97" x2="238.29" y2="722.97"/><line class="cls-10" x1="210.98" y1="761.97" x2="210.98" y2="722.97"/><line class="cls-10" x1="180.91" y1="761.97" x2="180.91" y2="722.97"/><line class="cls-10" x1="152.83" y1="761.97" x2="152.83" y2="722.97"/><line class="cls-10" x1="116.96" y1="761.97" x2="116.96" y2="722.97"/><line class="cls-10" x1="90.51" y1="761.97" x2="90.51" y2="722.97"/><line class="cls-10" x1="58.63" y1="761.97" x2="58.63" y2="722.97"/><line class="cls-10" x1="27.15" y1="761.97" x2="27.15" y2="722.97"/><line class="cls-10" x1="216.1" y1="720.89" x2="216.1" y2="679.82"/><line class="cls-10" x1="189.92" y1="720.89" x2="189.92" y2="679.82"/><line class="cls-10" x1="161.08" y1="720.89" x2="161.08" y2="679.82"/><line class="cls-10" x1="134.16" y1="720.89" x2="134.16" y2="679.82"/><line class="cls-10" x1="99.77" y1="720.89" x2="99.77" y2="679.82"/><line class="cls-10" x1="74.4" y1="720.89" x2="74.4" y2="679.82"/><line class="cls-10" x1="43.83" y1="720.89" x2="43.83" y2="679.82"/><line class="cls-10" x1="13.65" y1="720.89" x2="13.65" y2="679.82"/><rect class="cls-11" x="241.46" y="406.91" width="578.42" height="390.35" rx="21.71"/><rect class="cls-12" x="264.16" y="432.63" width="535.4" height="344.28" rx="19.62"/><rect class="cls-11" x="199.56" y="791.61" width="666.86" height="55.8" rx="22.94"/><circle class="cls-13" cx="765.94" cy="818.9" r="7.8"/><circle class="cls-13" cx="701.96" cy="818.9" r="7.8"/><rect class="cls-14" x="432.07" y="811.68" width="199.58" height="15.65" rx="7.82"/><circle class="cls-13" cx="819.88" cy="818.9" r="7.8"/><path class="cls-11" d="M486.72,710l-63.22,24.2C402.42,744.33,397,778.4,397,778.4H511.7Z"/><path class="cls-11" d="M528.87,717.8v60.6H508.58l14.83-42.65C503.89,719.36,528.87,717.8,528.87,717.8Z"/><path class="cls-11" d="M567.9,710l63.22,24.2c21.07,10.14,26.54,44.21,26.54,44.21H542.92Z"/><path class="cls-11" d="M525.75,717.8v60.6H546l-14.83-42.65C550.72,719.36,525.75,717.8,525.75,717.8Z"/><path class="cls-15" d="M516.52,703.86a23.06,23.06,0,0,1-8.44-2.56A41.16,41.16,0,0,1,492.55,688l-27.7-38.94s-18-25.76,8.59-26.54h0A49.08,49.08,0,0,1,469,600.15c1.1-30.36,6.31-38.71,9.58-40.93s6.65-4.45,9.81-6.9c13.58-10.54,26.15-12,33.57-11.7,4.4.19,8.81.14,13.21,0,6.58-.24,17.74,1.4,31,11.72,3.16,2.45,6.5,4.66,9.81,6.9s8.47,10.56,9.58,40.89a49.14,49.14,0,0,1-4.48,22.4h0c26.54.78,8.59,26.54,8.59,26.54L562,688a41.16,41.16,0,0,1-15.53,13.31,27.92,27.92,0,0,1-6.41,2.28c-2.87.59-5.76,1.13-8.57,1.95a15.18,15.18,0,0,1-10.83-.7A11,11,0,0,0,516.52,703.86Z"/><path class="cls-16" d="M469.5,590.57c30.49-19.51,39.08-18,39.08-18,19.51,2.34,34.34,18,34.34,18,25,14.83,42.64,9.54,42.64,9.54L580.1,565,546,541.9H509.35L475.41,563Z"/><path class="cls-1" d="M294,573.88V557.65H280.73a45.86,45.86,0,0,0-7.19-17.75l10-10-11.47-11.47-9.79,9.79a46.11,46.11,0,0,0-19-8V507H227.06V520.2a46,46,0,0,0-18.37,7.61l-9.36-9.36-11.47,11.47,9.36,9.36a46.26,46.26,0,0,0-7.62,18.37H176.37v16.23H189.6a46.08,46.08,0,0,0,8.05,19l-8.76,8.76,11.48,11.47,8.93-8.94a46,46,0,0,0,17.76,7.19v13.23h16.22V611.33a45.85,45.85,0,0,0,18.37-7.62l9.36,9.37,11.47-11.47-9.36-9.36a45.81,45.81,0,0,0,7.61-18.37Zm-44.86-5.64a14.17,14.17,0,0,1-11.47,11.47,14.28,14.28,0,0,1-2.47.21c-.53,0-1,0-1.57-.08a14.08,14.08,0,0,1-6.54-2.47,14,14,0,0,1-5.65-8.28,14,14,0,0,1-.4-3.32,14.39,14.39,0,0,1,.22-2.48,14.17,14.17,0,0,1,11.47-11.47,14.36,14.36,0,0,1,2.47-.21,14.59,14.59,0,0,1,3.33.39,14.17,14.17,0,0,1,10.74,12.2,13.51,13.51,0,0,1,.09,1.57A14.36,14.36,0,0,1,249.11,568.24Z"/><path class="cls-2" d="M263.63,557.65a29,29,0,0,0-2.24-5.6,29.61,29.61,0,0,0-11.17-11.76,28.74,28.74,0,0,0-6.94-3,29.67,29.67,0,0,0-16.22,0,28.87,28.87,0,0,0-6.28,2.6,29.61,29.61,0,0,0-14.07,17.74A29.58,29.58,0,0,0,221.46,592a28.11,28.11,0,0,0,5.6,2.24,29.67,29.67,0,0,0,16.22,0,28.87,28.87,0,0,0,6.28-2.6A29.68,29.68,0,0,0,261,580.15a28.79,28.79,0,0,0,2.6-6.27,29.7,29.7,0,0,0,0-16.23Zm-14.52,10.59a14.17,14.17,0,0,1-11.47,11.47,14.28,14.28,0,0,1-2.47.21c-.53,0-1,0-1.57-.08a14.08,14.08,0,0,1-6.54-2.47,14,14,0,0,1-5.65-8.28,14,14,0,0,1-.4-3.32,14.39,14.39,0,0,1,.22-2.48,14.17,14.17,0,0,1,11.47-11.47,14.36,14.36,0,0,1,2.47-.21,14.59,14.59,0,0,1,3.33.39,14.17,14.17,0,0,1,10.74,12.2,13.51,13.51,0,0,1,.09,1.57A14.36,14.36,0,0,1,249.11,568.24Z"/></svg>